<?xml version="1.0" encoding="UTF-8" standalone="no"?>
<!DOCTYPE svg PUBLIC "-//W3C//DTD SVG 1.1//EN"
 "http://www.w3.org/Graphics/SVG/1.1/DTD/svg11.dtd">
<!-- Generated by graphviz version 2.38.0 (20140413.2041)
 -->
<!-- Title: BCPositiveDefinitePrior Pages: 1 -->
<svg width="128pt" height="95pt"
 viewBox="0.00 0.00 128.00 95.00" xmlns="http://www.w3.org/2000/svg" xmlns:xlink="http://www.w3.org/1999/xlink">
<g id="graph0" class="graph" transform="scale(1 1) rotate(0) translate(4 91)">
<title>BCPositiveDefinitePrior</title>
<polygon fill="white" stroke="none" points="-4,4 -4,-91 124,-91 124,4 -4,4"/>
<!-- Node1 -->
<g id="node1" class="node"><title>Node1</title>
<polygon fill="#bfbfbf" stroke="black" points="-7.10543e-15,-0.5 -7.10543e-15,-19.5 120,-19.5 120,-0.5 -7.10543e-15,-0.5"/>
<text text-anchor="middle" x="60" y="-7.5" font-family="Helvetica,sans-Serif" font-size="10.00">BCPositiveDefinitePrior</text>
</g>
<!-- Node2 -->
<g id="node2" class="node"><title>Node2</title>
<g id="a_node2"><a xlink:href="classBCPrior.html" target="_top" xlink:title="A class to represent the prior of a parameter. ">
<polygon fill="white" stroke="black" points="34.5,-67.5 34.5,-86.5 85.5,-86.5 85.5,-67.5 34.5,-67.5"/>
<text text-anchor="middle" x="60" y="-74.5" font-family="Helvetica,sans-Serif" font-size="10.00">BCPrior</text>
</a>
</g>
</g>
<!-- Node2&#45;&gt;Node1 -->
<g id="edge1" class="edge"><title>Node2&#45;&gt;Node1</title>
<path fill="none" stroke="midnightblue" d="M58.4399,-57.3825C58.2572,-54.5753 58.1003,-51.7126 58,-49 57.6288,-38.9652 58.4035,-27.4502 59.0942,-19.7505"/>
<polygon fill="midnightblue" stroke="midnightblue" points="54.9607,-57.7906 59.2083,-67.4967 61.9406,-57.2602 54.9607,-57.7906"/>
</g>
<!-- Node2&#45;&gt;Node1 -->
<g id="edge2" class="edge"><title>Node2&#45;&gt;Node1</title>
<path fill="none" stroke="#9a32cd" stroke-dasharray="5,2" d="M60,-57.037C60,-44.6703 60,-29.1198 60,-19.6273"/>
<polygon fill="#9a32cd" stroke="#9a32cd" points="56.5001,-57.2338 60,-67.2338 63.5001,-57.2338 56.5001,-57.2338"/>
<text text-anchor="middle" x="73.5" y="-41" font-family="Helvetica,sans-Serif" font-size="10.00"> fPrior</text>
</g>
</g>
</svg>
