<?xml version="1.0" encoding="UTF-8" standalone="no"?>
<!DOCTYPE svg PUBLIC "-//W3C//DTD SVG 1.1//EN"
 "http://www.w3.org/Graphics/SVG/1.1/DTD/svg11.dtd">
<!-- Generated by graphviz version 2.38.0 (20140413.2041)
 -->
<!-- Title: RooStats::BATCalculator Pages: 1 -->
<svg width="174pt" height="84pt"
 viewBox="0.00 0.00 173.50 84.00" xmlns="http://www.w3.org/2000/svg" xmlns:xlink="http://www.w3.org/1999/xlink">
<g id="graph0" class="graph" transform="scale(1 1) rotate(0) translate(4 80)">
<title>RooStats::BATCalculator</title>
<polygon fill="white" stroke="none" points="-4,4 -4,-80 169.5,-80 169.5,4 -4,4"/>
<!-- Node1 -->
<g id="node1" class="node"><title>Node1</title>
<polygon fill="#bfbfbf" stroke="black" points="28.5,-0.5 28.5,-19.5 156.5,-19.5 156.5,-0.5 28.5,-0.5"/>
<text text-anchor="middle" x="92.5" y="-7.5" font-family="Helvetica,sans-Serif" font-size="10.00">RooStats::BATCalculator</text>
</g>
<!-- Node2 -->
<g id="node2" class="node"><title>Node2</title>
<polygon fill="white" stroke="#bfbfbf" points="0,-56.5 0,-75.5 93,-75.5 93,-56.5 0,-56.5"/>
<text text-anchor="middle" x="46.5" y="-63.5" font-family="Helvetica,sans-Serif" font-size="10.00">IntervalCalculator</text>
</g>
<!-- Node2&#45;&gt;Node1 -->
<g id="edge1" class="edge"><title>Node2&#45;&gt;Node1</title>
<path fill="none" stroke="midnightblue" d="M60.614,-48.4314C68.676,-38.9673 78.4592,-27.4827 85.0454,-19.7511"/>
<polygon fill="midnightblue" stroke="midnightblue" points="57.9163,-46.2009 54.096,-56.083 63.245,-50.7402 57.9163,-46.2009"/>
</g>
<!-- Node3 -->
<g id="node3" class="node"><title>Node3</title>
<polygon fill="white" stroke="#bfbfbf" points="111.5,-56.5 111.5,-75.5 165.5,-75.5 165.5,-56.5 111.5,-56.5"/>
<text text-anchor="middle" x="138.5" y="-63.5" font-family="Helvetica,sans-Serif" font-size="10.00">TNamed</text>
</g>
<!-- Node3&#45;&gt;Node1 -->
<g id="edge2" class="edge"><title>Node3&#45;&gt;Node1</title>
<path fill="none" stroke="midnightblue" d="M124.386,-48.4314C116.324,-38.9673 106.541,-27.4827 99.9546,-19.7511"/>
<polygon fill="midnightblue" stroke="midnightblue" points="121.755,-50.7402 130.904,-56.083 127.084,-46.2009 121.755,-50.7402"/>
</g>
</g>
</svg>
