<?xml version="1.0" encoding="UTF-8" standalone="no"?>
<!DOCTYPE svg PUBLIC "-//W3C//DTD SVG 1.1//EN"
 "http://www.w3.org/Graphics/SVG/1.1/DTD/svg11.dtd">
<!-- Generated by graphviz version 2.38.0 (20140413.2041)
 -->
<!-- Title: BCHistogramFitter Pages: 1 -->
<svg width="1321pt" height="281pt"
 viewBox="0.00 0.00 1321.00 281.45" xmlns="http://www.w3.org/2000/svg" xmlns:xlink="http://www.w3.org/1999/xlink">
<g id="graph0" class="graph" transform="scale(1 1) rotate(0) translate(4 277.454)">
<title>BCHistogramFitter</title>
<polygon fill="white" stroke="none" points="-4,4 -4,-277.454 1317,-277.454 1317,4 -4,4"/>
<!-- Node1 -->
<g id="node1" class="node"><title>Node1</title>
<polygon fill="#bfbfbf" stroke="black" points="1215,-135.954 1215,-154.954 1313,-154.954 1313,-135.954 1215,-135.954"/>
<text text-anchor="middle" x="1264" y="-142.954" font-family="Helvetica,sans-Serif" font-size="10.00">BCHistogramFitter</text>
</g>
<!-- Node2 -->
<g id="node2" class="node"><title>Node2</title>
<g id="a_node2"><a xlink:href="classBCFitter.html" target="_top" xlink:title="A base class for all fitting classes. ">
<polygon fill="white" stroke="black" points="1113,-135.954 1113,-154.954 1166,-154.954 1166,-135.954 1113,-135.954"/>
<text text-anchor="middle" x="1139.5" y="-142.954" font-family="Helvetica,sans-Serif" font-size="10.00">BCFitter</text>
</a>
</g>
</g>
<!-- Node2&#45;&gt;Node1 -->
<g id="edge1" class="edge"><title>Node2&#45;&gt;Node1</title>
<path fill="none" stroke="midnightblue" d="M1176.24,-145.454C1188.23,-145.454 1201.8,-145.454 1214.59,-145.454"/>
<polygon fill="midnightblue" stroke="midnightblue" points="1176.18,-141.954 1166.18,-145.454 1176.18,-148.954 1176.18,-141.954"/>
</g>
<!-- Node3 -->
<g id="node3" class="node"><title>Node3</title>
<g id="a_node3"><a xlink:href="classBCModel.html" target="_top" xlink:title="The base class for all user&#45;defined models. ">
<polygon fill="white" stroke="black" points="951,-193.954 951,-212.954 1008,-212.954 1008,-193.954 951,-193.954"/>
<text text-anchor="middle" x="979.5" y="-200.954" font-family="Helvetica,sans-Serif" font-size="10.00">BCModel</text>
</a>
</g>
</g>
<!-- Node3&#45;&gt;Node2 -->
<g id="edge2" class="edge"><title>Node3&#45;&gt;Node2</title>
<path fill="none" stroke="midnightblue" d="M1016.09,-190.39C1045.52,-179.585 1086.62,-164.5 1112.89,-154.853"/>
<polygon fill="midnightblue" stroke="midnightblue" points="1014.77,-187.145 1006.59,-193.876 1017.18,-193.716 1014.77,-187.145"/>
</g>
<!-- Node16 -->
<g id="node16" class="node"><title>Node16</title>
<g id="a_node16"><a xlink:href="classBCPriorModel.html" target="_top" xlink:title="Class for sampling from prior of a BCModel. ">
<polygon fill="white" stroke="black" points="1101,-206.954 1101,-225.954 1178,-225.954 1178,-206.954 1101,-206.954"/>
<text text-anchor="middle" x="1139.5" y="-213.954" font-family="Helvetica,sans-Serif" font-size="10.00">BCPriorModel</text>
</a>
</g>
</g>
<!-- Node3&#45;&gt;Node16 -->
<g id="edge19" class="edge"><title>Node3&#45;&gt;Node16</title>
<path fill="none" stroke="midnightblue" d="M1018.23,-206.558C1043.25,-208.617 1075.95,-211.308 1100.94,-213.363"/>
<polygon fill="midnightblue" stroke="midnightblue" points="1018.27,-203.05 1008.02,-205.718 1017.7,-210.027 1018.27,-203.05"/>
</g>
<!-- Node3&#45;&gt;Node16 -->
<g id="edge20" class="edge"><title>Node3&#45;&gt;Node16</title>
<path fill="none" stroke="#9a32cd" stroke-dasharray="5,2" d="M1018.14,-194.539C1037.64,-191.242 1061.74,-189.224 1083,-193.454 1096.09,-196.06 1109.97,-201.81 1120.57,-206.908"/>
<polygon fill="#9a32cd" stroke="#9a32cd" points="1017.31,-191.134 1008.12,-196.412 1018.6,-198.015 1017.31,-191.134"/>
<text text-anchor="middle" x="1056.5" y="-196.454" font-family="Helvetica,sans-Serif" font-size="10.00"> fModel</text>
</g>
<!-- Node4 -->
<g id="node4" class="node"><title>Node4</title>
<g id="a_node4"><a xlink:href="classBCIntegrate.html" target="_top" xlink:title="A class for handling numerical operations for models. ">
<polygon fill="white" stroke="black" points="799,-166.954 799,-185.954 868,-185.954 868,-166.954 799,-166.954"/>
<text text-anchor="middle" x="833.5" y="-173.954" font-family="Helvetica,sans-Serif" font-size="10.00">BCIntegrate</text>
</a>
</g>
</g>
<!-- Node4&#45;&gt;Node3 -->
<g id="edge3" class="edge"><title>Node4&#45;&gt;Node3</title>
<path fill="none" stroke="midnightblue" d="M878.365,-184.679C901.92,-189.095 930.243,-194.406 950.747,-198.25"/>
<polygon fill="midnightblue" stroke="midnightblue" points="878.735,-181.187 868.262,-182.784 877.445,-188.067 878.735,-181.187"/>
</g>
<!-- Node5 -->
<g id="node5" class="node"><title>Node5</title>
<g id="a_node5"><a xlink:href="classBCEngineMCMC.html" target="_top" xlink:title="An engine class for Markov Chain Monte Carlo. ">
<polygon fill="white" stroke="black" points="521,-125.954 521,-144.954 613,-144.954 613,-125.954 521,-125.954"/>
<text text-anchor="middle" x="567" y="-132.954" font-family="Helvetica,sans-Serif" font-size="10.00">BCEngineMCMC</text>
</a>
</g>
</g>
<!-- Node5&#45;&gt;Node4 -->
<g id="edge4" class="edge"><title>Node5&#45;&gt;Node4</title>
<path fill="none" stroke="midnightblue" d="M623.085,-143.993C676.097,-152.21 754.551,-164.371 798.849,-171.238"/>
<polygon fill="midnightblue" stroke="midnightblue" points="623.587,-140.529 613.169,-142.456 622.514,-147.446 623.587,-140.529"/>
</g>
<!-- Node6 -->
<g id="node6" class="node"><title>Node6</title>
<g id="a_node6"><a xlink:href="classBCH2D.html" target="_top" xlink:title="A class for handling 2D distributions. ">
<polygon fill="white" stroke="black" points="251,-203.954 251,-222.954 302,-222.954 302,-203.954 251,-203.954"/>
<text text-anchor="middle" x="276.5" y="-210.954" font-family="Helvetica,sans-Serif" font-size="10.00">BCH2D</text>
</a>
</g>
</g>
<!-- Node6&#45;&gt;Node3 -->
<g id="edge16" class="edge"><title>Node6&#45;&gt;Node3</title>
<path fill="none" stroke="#9a32cd" stroke-dasharray="5,2" d="M312.283,-212.958C434.198,-211.219 840.715,-205.42 950.803,-203.849"/>
<polygon fill="#9a32cd" stroke="#9a32cd" points="311.987,-209.462 302.038,-213.104 312.087,-216.461 311.987,-209.462"/>
<text text-anchor="middle" x="706" y="-222.454" font-family="Helvetica,sans-Serif" font-size="10.00"> fBCH2DPosteriorDrawingOptions</text>
<text text-anchor="middle" x="706" y="-211.454" font-family="Helvetica,sans-Serif" font-size="10.00">fBCH2DPriorDrawingOptions</text>
</g>
<!-- Node6&#45;&gt;Node5 -->
<g id="edge5" class="edge"><title>Node6&#45;&gt;Node5</title>
<path fill="none" stroke="#9a32cd" stroke-dasharray="5,2" d="M312.057,-205.375C330.916,-201.058 354.698,-195.76 376,-191.454 432.225,-180.089 448.748,-187.087 503,-168.454 520.166,-162.558 538.391,-152.552 550.798,-145.101"/>
<polygon fill="#9a32cd" stroke="#9a32cd" points="311.093,-202.006 302.134,-207.661 312.664,-208.827 311.093,-202.006"/>
<text text-anchor="middle" x="439.5" y="-194.454" font-family="Helvetica,sans-Serif" font-size="10.00"> fBCH2DdrawingOptions</text>
</g>
<!-- Node7 -->
<g id="node7" class="node"><title>Node7</title>
<g id="a_node7"><a xlink:href="classBCHistogramBase.html" target="_top" xlink:title="A base class for drawing histograms in BAT style. ">
<polygon fill="white" stroke="black" points="30,-218.954 30,-237.954 128,-237.954 128,-218.954 30,-218.954"/>
<text text-anchor="middle" x="79" y="-225.954" font-family="Helvetica,sans-Serif" font-size="10.00">BCHistogramBase</text>
</a>
</g>
</g>
<!-- Node7&#45;&gt;Node6 -->
<g id="edge6" class="edge"><title>Node7&#45;&gt;Node6</title>
<path fill="none" stroke="midnightblue" d="M138.395,-223.974C175.942,-221.093 222.787,-217.498 250.86,-215.345"/>
<polygon fill="midnightblue" stroke="midnightblue" points="137.778,-220.511 128.075,-224.765 138.314,-227.49 137.778,-220.511"/>
</g>
<!-- Node8 -->
<g id="node8" class="node"><title>Node8</title>
<g id="a_node8"><a xlink:href="classBCH1D.html" target="_top" xlink:title="A class for handling 1D distributions. ">
<polygon fill="white" stroke="black" points="251,-241.954 251,-260.954 302,-260.954 302,-241.954 251,-241.954"/>
<text text-anchor="middle" x="276.5" y="-248.954" font-family="Helvetica,sans-Serif" font-size="10.00">BCH1D</text>
</a>
</g>
</g>
<!-- Node7&#45;&gt;Node8 -->
<g id="edge8" class="edge"><title>Node7&#45;&gt;Node8</title>
<path fill="none" stroke="midnightblue" d="M138.395,-235.324C175.942,-239.741 222.787,-245.253 250.86,-248.555"/>
<polygon fill="midnightblue" stroke="midnightblue" points="138.416,-231.802 128.075,-234.11 137.598,-238.754 138.416,-231.802"/>
</g>
<!-- Node8&#45;&gt;Node3 -->
<g id="edge17" class="edge"><title>Node8&#45;&gt;Node3</title>
<path fill="none" stroke="#9a32cd" stroke-dasharray="5,2" d="M312.34,-255.417C331.162,-257.361 354.822,-259.489 376,-260.454 556.183,-268.669 601.48,-251.946 781,-234.454 846.803,-228.042 864.294,-233.031 929,-219.454 936.778,-217.822 945.058,-215.421 952.576,-212.973"/>
<polygon fill="#9a32cd" stroke="#9a32cd" points="312.464,-251.911 302.15,-254.334 311.724,-258.871 312.464,-251.911"/>
<text text-anchor="middle" x="706" y="-265.454" font-family="Helvetica,sans-Serif" font-size="10.00"> fBCH1DPosteriorDrawingOptions</text>
<text text-anchor="middle" x="706" y="-254.454" font-family="Helvetica,sans-Serif" font-size="10.00">fBCH1DPriorDrawingOptions</text>
</g>
<!-- Node8&#45;&gt;Node5 -->
<g id="edge7" class="edge"><title>Node8&#45;&gt;Node5</title>
<path fill="none" stroke="#9a32cd" stroke-dasharray="5,2" d="M312.47,-251.244C358.955,-249.52 442.289,-241.296 503,-206.454 529.585,-191.197 550.796,-160.63 560.408,-145.054"/>
<polygon fill="#9a32cd" stroke="#9a32cd" points="312.2,-247.75 302.306,-251.538 312.403,-254.747 312.2,-247.75"/>
<text text-anchor="middle" x="439.5" y="-248.454" font-family="Helvetica,sans-Serif" font-size="10.00"> fBCH1DdrawingOptions</text>
</g>
<!-- Node9 -->
<g id="node9" class="node"><title>Node9</title>
<g id="a_node9"><a xlink:href="classBCParameterSet.html" target="_top" xlink:title="Wrapper to allow access by name into list of BCParameter. ">
<polygon fill="white" stroke="black" points="231,-114.954 231,-133.954 322,-133.954 322,-114.954 231,-114.954"/>
<text text-anchor="middle" x="276.5" y="-121.954" font-family="Helvetica,sans-Serif" font-size="10.00">BCParameterSet</text>
</a>
</g>
</g>
<!-- Node9&#45;&gt;Node5 -->
<g id="edge9" class="edge"><title>Node9&#45;&gt;Node5</title>
<path fill="none" stroke="#9a32cd" stroke-dasharray="5,2" d="M332.117,-121.212C377.87,-119.214 444.841,-117.964 503,-123.454 509.097,-124.029 515.482,-124.912 521.75,-125.942"/>
<polygon fill="#9a32cd" stroke="#9a32cd" points="331.941,-117.716 322.114,-121.675 332.265,-124.708 331.941,-117.716"/>
<text text-anchor="middle" x="439.5" y="-126.454" font-family="Helvetica,sans-Serif" font-size="10.00"> fParameters</text>
</g>
<!-- Node10 -->
<g id="node10" class="node"><title>Node10</title>
<g id="a_node10"><a xlink:href="classBCVariableSet.html" target="_top" xlink:title="BCVariableSet\&lt; BCParameter \&gt;">
<polygon fill="white" stroke="black" points="0,-114.954 0,-133.954 158,-133.954 158,-114.954 0,-114.954"/>
<text text-anchor="middle" x="79" y="-121.954" font-family="Helvetica,sans-Serif" font-size="10.00">BCVariableSet&lt; BCParameter &gt;</text>
</a>
</g>
</g>
<!-- Node10&#45;&gt;Node9 -->
<g id="edge10" class="edge"><title>Node10&#45;&gt;Node9</title>
<path fill="none" stroke="midnightblue" d="M168.355,-124.454C190.054,-124.454 212.376,-124.454 230.991,-124.454"/>
<polygon fill="midnightblue" stroke="midnightblue" points="168.11,-120.954 158.11,-124.454 168.11,-127.954 168.11,-120.954"/>
</g>
<!-- Node11 -->
<g id="node11" class="node"><title>Node11</title>
<g id="a_node11"><a xlink:href="structBCEngineMCMC_1_1Statistics.html" target="_top" xlink:title="A struct for holding statistical information about samples. ">
<polygon fill="white" stroke="black" points="206.5,-76.954 206.5,-95.954 346.5,-95.954 346.5,-76.954 206.5,-76.954"/>
<text text-anchor="middle" x="276.5" y="-83.954" font-family="Helvetica,sans-Serif" font-size="10.00">BCEngineMCMC::Statistics</text>
</a>
</g>
</g>
<!-- Node11&#45;&gt;Node5 -->
<g id="edge11" class="edge"><title>Node11&#45;&gt;Node5</title>
<path fill="none" stroke="#9a32cd" stroke-dasharray="5,2" d="M356.717,-86.2028C400.506,-87.7783 455.502,-92.6027 503,-105.454 519.839,-110.01 537.668,-118.933 550.045,-125.868"/>
<polygon fill="#9a32cd" stroke="#9a32cd" points="356.801,-82.7038 346.697,-85.8914 356.583,-89.7004 356.801,-82.7038"/>
<text text-anchor="middle" x="439.5" y="-108.454" font-family="Helvetica,sans-Serif" font-size="10.00"> fMCMCStatistics_AllChains</text>
</g>
<!-- Node12 -->
<g id="node12" class="node"><title>Node12</title>
<g id="a_node12"><a xlink:href="classBCAux_1_1BCTrash.html" target="_top" xlink:title="BCAux::BCTrash\&lt; TObject \&gt;">
<polygon fill="white" stroke="black" points="203.5,-38.954 203.5,-57.954 349.5,-57.954 349.5,-38.954 203.5,-38.954"/>
<text text-anchor="middle" x="276.5" y="-45.954" font-family="Helvetica,sans-Serif" font-size="10.00">BCAux::BCTrash&lt; TObject &gt;</text>
</a>
</g>
</g>
<!-- Node12&#45;&gt;Node5 -->
<g id="edge12" class="edge"><title>Node12&#45;&gt;Node5</title>
<path fill="none" stroke="#9a32cd" stroke-dasharray="5,2" d="M359.812,-44.2183C404.187,-45.064 458.755,-51.3148 503,-72.454 528.401,-84.5903 549.527,-111.313 559.618,-125.747"/>
<polygon fill="#9a32cd" stroke="#9a32cd" points="359.673,-40.7168 349.638,-44.1146 359.602,-47.7164 359.673,-40.7168"/>
<text text-anchor="middle" x="439.5" y="-75.454" font-family="Helvetica,sans-Serif" font-size="10.00"> fObjectTrash</text>
</g>
<!-- Node13 -->
<g id="node13" class="node"><title>Node13</title>
<g id="a_node13"><a xlink:href="classBCVariableSet.html" target="_top" xlink:title="BCVariableSet\&lt; BCObservable \&gt;">
<polygon fill="white" stroke="black" points="195,-0.954012 195,-19.954 358,-19.954 358,-0.954012 195,-0.954012"/>
<text text-anchor="middle" x="276.5" y="-7.95401" font-family="Helvetica,sans-Serif" font-size="10.00">BCVariableSet&lt; BCObservable &gt;</text>
</a>
</g>
</g>
<!-- Node13&#45;&gt;Node5 -->
<g id="edge13" class="edge"><title>Node13&#45;&gt;Node5</title>
<path fill="none" stroke="#9a32cd" stroke-dasharray="5,2" d="M357.704,-0.451602C403.519,1.285 460.185,-3.64558 503,-30.454 539.036,-53.0177 557.218,-104.413 563.448,-125.818"/>
<polygon fill="#9a32cd" stroke="#9a32cd" points="357.322,3.03391 347.506,-0.953449 357.666,-3.95763 357.322,3.03391"/>
<text text-anchor="middle" x="439.5" y="-33.454" font-family="Helvetica,sans-Serif" font-size="10.00"> fObservables</text>
</g>
<!-- Node14 -->
<g id="node14" class="node"><title>Node14</title>
<g id="a_node14"><a xlink:href="structBCEngineMCMC_1_1ChainState.html" target="_top" xlink:title="A struct for holding a state in a Markov chain. ">
<polygon fill="white" stroke="black" points="203,-152.954 203,-171.954 350,-171.954 350,-152.954 203,-152.954"/>
<text text-anchor="middle" x="276.5" y="-159.954" font-family="Helvetica,sans-Serif" font-size="10.00">BCEngineMCMC::ChainState</text>
</a>
</g>
</g>
<!-- Node14&#45;&gt;Node5 -->
<g id="edge14" class="edge"><title>Node14&#45;&gt;Node5</title>
<path fill="none" stroke="#9a32cd" stroke-dasharray="5,2" d="M360.543,-154.682C412.682,-149.803 477.917,-143.698 520.714,-139.692"/>
<polygon fill="#9a32cd" stroke="#9a32cd" points="359.931,-151.224 350.301,-155.641 360.583,-158.194 359.931,-151.224"/>
<text text-anchor="middle" x="439.5" y="-156.454" font-family="Helvetica,sans-Serif" font-size="10.00"> fMCMCTree_State</text>
</g>
<!-- Node15 -->
<g id="node15" class="node"><title>Node15</title>
<g id="a_node15"><a xlink:href="classBCDataSet.html" target="_top" xlink:title="A class representing a set of data points. ">
<polygon fill="white" stroke="black" points="800,-124.954 800,-143.954 867,-143.954 867,-124.954 800,-124.954"/>
<text text-anchor="middle" x="833.5" y="-131.954" font-family="Helvetica,sans-Serif" font-size="10.00">BCDataSet</text>
</a>
</g>
</g>
<!-- Node15&#45;&gt;Node2 -->
<g id="edge21" class="edge"><title>Node15&#45;&gt;Node2</title>
<path fill="none" stroke="#9a32cd" stroke-dasharray="5,2" d="M877.207,-135.999C941.317,-138.319 1060.48,-142.631 1112.77,-144.523"/>
<polygon fill="#9a32cd" stroke="#9a32cd" points="877.153,-132.495 867.033,-135.631 876.9,-139.491 877.153,-132.495"/>
<text text-anchor="middle" x="979.5" y="-144.454" font-family="Helvetica,sans-Serif" font-size="10.00"> fFitterDataSet</text>
</g>
<!-- Node15&#45;&gt;Node3 -->
<g id="edge15" class="edge"><title>Node15&#45;&gt;Node3</title>
<path fill="none" stroke="#9a32cd" stroke-dasharray="5,2" d="M871.391,-147.547C889.137,-154.281 910.519,-163.045 929,-172.454 941.47,-178.803 954.88,-187.315 964.593,-193.813"/>
<polygon fill="#9a32cd" stroke="#9a32cd" points="872.541,-144.24 861.948,-144.023 870.094,-150.798 872.541,-144.24"/>
<text text-anchor="middle" x="907.5" y="-175.454" font-family="Helvetica,sans-Serif" font-size="10.00"> fDataSet</text>
</g>
<!-- Node16&#45;&gt;Node3 -->
<g id="edge18" class="edge"><title>Node16&#45;&gt;Node3</title>
<path fill="none" stroke="#9a32cd" stroke-dasharray="5,2" d="M1091.89,-227.78C1072.56,-230.776 1050.02,-232.052 1030,-227.454 1017.9,-224.675 1005.32,-218.53 995.876,-213.153"/>
<polygon fill="#9a32cd" stroke="#9a32cd" points="1092.72,-231.189 1101.96,-226.022 1091.51,-224.293 1092.72,-231.189"/>
<text text-anchor="middle" x="1056.5" y="-234.454" font-family="Helvetica,sans-Serif" font-size="10.00"> fPriorModel</text>
</g>
</g>
</svg>
