<?xml version="1.0" encoding="UTF-8" standalone="no"?>
<!DOCTYPE svg PUBLIC "-//W3C//DTD SVG 1.1//EN"
 "http://www.w3.org/Graphics/SVG/1.1/DTD/svg11.dtd">
<!-- Generated by graphviz version 2.38.0 (20140413.2041)
 -->
<!-- Title: BCPriorModel Pages: 1 -->
<svg width="1030pt" height="372pt"
 viewBox="0.00 0.00 1030.00 371.79" xmlns="http://www.w3.org/2000/svg" xmlns:xlink="http://www.w3.org/1999/xlink">
<g id="graph0" class="graph" transform="scale(1 1) rotate(0) translate(4 367.789)">
<title>BCPriorModel</title>
<polygon fill="white" stroke="none" points="-4,4 -4,-367.789 1026,-367.789 1026,4 -4,4"/>
<!-- Node1 -->
<g id="node1" class="node"><title>Node1</title>
<polygon fill="#bfbfbf" stroke="black" points="799,-333.681 799,-352.681 876,-352.681 876,-333.681 799,-333.681"/>
<text text-anchor="middle" x="837.5" y="-340.681" font-family="Helvetica,sans-Serif" font-size="10.00">BCPriorModel</text>
</g>
<!-- Node2 -->
<g id="node2" class="node"><title>Node2</title>
<g id="a_node2"><a xlink:href="classBCModel.html" target="_top" xlink:title="The base class for all user&#45;defined models. ">
<polygon fill="white" stroke="black" points="965,-266.681 965,-285.681 1022,-285.681 1022,-266.681 965,-266.681"/>
<text text-anchor="middle" x="993.5" y="-273.681" font-family="Helvetica,sans-Serif" font-size="10.00">BCModel</text>
</a>
</g>
</g>
<!-- Node1&#45;&gt;Node2 -->
<g id="edge17" class="edge"><title>Node1&#45;&gt;Node2</title>
<path fill="none" stroke="#9a32cd" stroke-dasharray="5,2" d="M861.386,-328.142C871.182,-322.085 882.903,-315.33 894,-310.181 917.139,-299.446 944.67,-290.222 964.735,-284.101"/>
<polygon fill="#9a32cd" stroke="#9a32cd" points="859.244,-325.355 852.666,-333.66 862.987,-331.27 859.244,-325.355"/>
<text text-anchor="middle" x="920.5" y="-313.181" font-family="Helvetica,sans-Serif" font-size="10.00"> fPriorModel</text>
</g>
<!-- Node2&#45;&gt;Node1 -->
<g id="edge1" class="edge"><title>Node2&#45;&gt;Node1</title>
<path fill="none" stroke="midnightblue" d="M987.4,-295.685C981.28,-314.675 968.981,-342.475 947,-355.181 920.091,-370.736 883.131,-361.436 860.041,-352.743"/>
<polygon fill="midnightblue" stroke="midnightblue" points="990.8,-296.528 990.252,-285.948 984.082,-294.561 990.8,-296.528"/>
</g>
<!-- Node2&#45;&gt;Node1 -->
<g id="edge18" class="edge"><title>Node2&#45;&gt;Node1</title>
<path fill="none" stroke="#9a32cd" stroke-dasharray="5,2" d="M979.236,-293.574C970.992,-303.17 959.586,-314.468 947,-321.181 925.208,-332.804 897.956,-338.301 876.215,-340.895"/>
<polygon fill="#9a32cd" stroke="#9a32cd" points="982.017,-295.702 985.617,-285.738 976.589,-291.282 982.017,-295.702"/>
<text text-anchor="middle" x="920.5" y="-340.181" font-family="Helvetica,sans-Serif" font-size="10.00"> fModel</text>
</g>
<!-- Node3 -->
<g id="node3" class="node"><title>Node3</title>
<g id="a_node3"><a xlink:href="classBCIntegrate.html" target="_top" xlink:title="A class for handling numerical operations for models. ">
<polygon fill="white" stroke="black" points="803,-169.681 803,-188.681 872,-188.681 872,-169.681 803,-169.681"/>
<text text-anchor="middle" x="837.5" y="-176.681" font-family="Helvetica,sans-Serif" font-size="10.00">BCIntegrate</text>
</a>
</g>
</g>
<!-- Node3&#45;&gt;Node2 -->
<g id="edge2" class="edge"><title>Node3&#45;&gt;Node2</title>
<path fill="none" stroke="midnightblue" d="M882.117,-181.024C903.305,-183.761 928.185,-189.875 947,-203.181 969.8,-219.306 983.569,-250.825 989.335,-266.645"/>
<polygon fill="midnightblue" stroke="midnightblue" points="882.373,-177.531 872.055,-179.935 881.62,-184.491 882.373,-177.531"/>
</g>
<!-- Node4 -->
<g id="node4" class="node"><title>Node4</title>
<g id="a_node4"><a xlink:href="classBCEngineMCMC.html" target="_top" xlink:title="An engine class for Markov Chain Monte Carlo. ">
<polygon fill="white" stroke="black" points="521,-127.681 521,-146.681 613,-146.681 613,-127.681 521,-127.681"/>
<text text-anchor="middle" x="567" y="-134.681" font-family="Helvetica,sans-Serif" font-size="10.00">BCEngineMCMC</text>
</a>
</g>
</g>
<!-- Node4&#45;&gt;Node3 -->
<g id="edge3" class="edge"><title>Node4&#45;&gt;Node3</title>
<path fill="none" stroke="midnightblue" d="M623.353,-145.84C677.428,-154.298 757.973,-166.898 802.98,-173.938"/>
<polygon fill="midnightblue" stroke="midnightblue" points="623.665,-142.346 613.244,-144.258 622.583,-149.262 623.665,-142.346"/>
</g>
<!-- Node5 -->
<g id="node5" class="node"><title>Node5</title>
<g id="a_node5"><a xlink:href="classBCH2D.html" target="_top" xlink:title="A class for handling 2D distributions. ">
<polygon fill="white" stroke="black" points="251,-242.681 251,-261.681 302,-261.681 302,-242.681 251,-242.681"/>
<text text-anchor="middle" x="276.5" y="-249.681" font-family="Helvetica,sans-Serif" font-size="10.00">BCH2D</text>
</a>
</g>
</g>
<!-- Node5&#45;&gt;Node2 -->
<g id="edge15" class="edge"><title>Node5&#45;&gt;Node2</title>
<path fill="none" stroke="#9a32cd" stroke-dasharray="5,2" d="M312.351,-255.937C331.176,-257.822 354.835,-259.958 376,-261.181 603.13,-274.306 877.975,-275.977 964.822,-276.166"/>
<polygon fill="#9a32cd" stroke="#9a32cd" points="312.463,-252.43 302.159,-254.895 311.751,-259.394 312.463,-252.43"/>
<text text-anchor="middle" x="706" y="-289.181" font-family="Helvetica,sans-Serif" font-size="10.00"> fBCH2DPosteriorDrawingOptions</text>
<text text-anchor="middle" x="706" y="-278.181" font-family="Helvetica,sans-Serif" font-size="10.00">fBCH2DPriorDrawingOptions</text>
</g>
<!-- Node5&#45;&gt;Node4 -->
<g id="edge4" class="edge"><title>Node5&#45;&gt;Node4</title>
<path fill="none" stroke="#9a32cd" stroke-dasharray="5,2" d="M312.433,-251.907C358.878,-250.112 442.166,-241.809 503,-207.181 529.145,-192.299 550.252,-162.648 560.057,-147.146"/>
<polygon fill="#9a32cd" stroke="#9a32cd" points="312.167,-248.413 302.279,-252.217 312.381,-255.41 312.167,-248.413"/>
<text text-anchor="middle" x="439.5" y="-249.181" font-family="Helvetica,sans-Serif" font-size="10.00"> fBCH2DdrawingOptions</text>
</g>
<!-- Node6 -->
<g id="node6" class="node"><title>Node6</title>
<g id="a_node6"><a xlink:href="classBCHistogramBase.html" target="_top" xlink:title="A base class for drawing histograms in BAT style. ">
<polygon fill="white" stroke="black" points="30,-219.681 30,-238.681 128,-238.681 128,-219.681 30,-219.681"/>
<text text-anchor="middle" x="79" y="-226.681" font-family="Helvetica,sans-Serif" font-size="10.00">BCHistogramBase</text>
</a>
</g>
</g>
<!-- Node6&#45;&gt;Node5 -->
<g id="edge5" class="edge"><title>Node6&#45;&gt;Node5</title>
<path fill="none" stroke="midnightblue" d="M138.395,-236.051C175.942,-240.468 222.787,-245.98 250.86,-249.282"/>
<polygon fill="midnightblue" stroke="midnightblue" points="138.416,-232.529 128.075,-234.837 137.598,-239.482 138.416,-232.529"/>
</g>
<!-- Node7 -->
<g id="node7" class="node"><title>Node7</title>
<g id="a_node7"><a xlink:href="classBCH1D.html" target="_top" xlink:title="A class for handling 1D distributions. ">
<polygon fill="white" stroke="black" points="251,-204.681 251,-223.681 302,-223.681 302,-204.681 251,-204.681"/>
<text text-anchor="middle" x="276.5" y="-211.681" font-family="Helvetica,sans-Serif" font-size="10.00">BCH1D</text>
</a>
</g>
</g>
<!-- Node6&#45;&gt;Node7 -->
<g id="edge7" class="edge"><title>Node6&#45;&gt;Node7</title>
<path fill="none" stroke="midnightblue" d="M138.395,-224.701C175.942,-221.82 222.787,-218.226 250.86,-216.072"/>
<polygon fill="midnightblue" stroke="midnightblue" points="137.778,-221.238 128.075,-225.493 138.314,-228.217 137.778,-221.238"/>
</g>
<!-- Node7&#45;&gt;Node2 -->
<g id="edge16" class="edge"><title>Node7&#45;&gt;Node2</title>
<path fill="none" stroke="#9a32cd" stroke-dasharray="5,2" d="M312.175,-215.459C393.969,-218.675 605.288,-228.163 781,-246.181 847.223,-252.972 924.561,-264.989 964.869,-271.565"/>
<polygon fill="#9a32cd" stroke="#9a32cd" points="312.308,-211.962 302.18,-215.072 312.037,-218.956 312.308,-211.962"/>
<text text-anchor="middle" x="706" y="-260.181" font-family="Helvetica,sans-Serif" font-size="10.00"> fBCH1DPosteriorDrawingOptions</text>
<text text-anchor="middle" x="706" y="-249.181" font-family="Helvetica,sans-Serif" font-size="10.00">fBCH1DPriorDrawingOptions</text>
</g>
<!-- Node7&#45;&gt;Node4 -->
<g id="edge6" class="edge"><title>Node7&#45;&gt;Node4</title>
<path fill="none" stroke="#9a32cd" stroke-dasharray="5,2" d="M312.057,-206.103C330.916,-201.785 354.698,-196.487 376,-192.181 432.225,-180.816 448.632,-187.474 503,-169.181 519.859,-163.509 537.832,-153.996 550.247,-146.813"/>
<polygon fill="#9a32cd" stroke="#9a32cd" points="311.093,-202.733 302.134,-208.388 312.664,-209.554 311.093,-202.733"/>
<text text-anchor="middle" x="439.5" y="-195.181" font-family="Helvetica,sans-Serif" font-size="10.00"> fBCH1DdrawingOptions</text>
</g>
<!-- Node8 -->
<g id="node8" class="node"><title>Node8</title>
<g id="a_node8"><a xlink:href="classBCParameterSet.html" target="_top" xlink:title="Wrapper to allow access by name into list of BCParameter. ">
<polygon fill="white" stroke="black" points="231,-153.681 231,-172.681 322,-172.681 322,-153.681 231,-153.681"/>
<text text-anchor="middle" x="276.5" y="-160.681" font-family="Helvetica,sans-Serif" font-size="10.00">BCParameterSet</text>
</a>
</g>
</g>
<!-- Node8&#45;&gt;Node4 -->
<g id="edge8" class="edge"><title>Node8&#45;&gt;Node4</title>
<path fill="none" stroke="#9a32cd" stroke-dasharray="5,2" d="M332.447,-158.229C387.022,-153.311 469.712,-145.859 520.657,-141.267"/>
<polygon fill="#9a32cd" stroke="#9a32cd" points="331.907,-154.764 322.262,-159.147 332.535,-161.735 331.907,-154.764"/>
<text text-anchor="middle" x="439.5" y="-157.181" font-family="Helvetica,sans-Serif" font-size="10.00"> fParameters</text>
</g>
<!-- Node9 -->
<g id="node9" class="node"><title>Node9</title>
<g id="a_node9"><a xlink:href="classBCVariableSet.html" target="_top" xlink:title="BCVariableSet\&lt; BCParameter \&gt;">
<polygon fill="white" stroke="black" points="0,-153.681 0,-172.681 158,-172.681 158,-153.681 0,-153.681"/>
<text text-anchor="middle" x="79" y="-160.681" font-family="Helvetica,sans-Serif" font-size="10.00">BCVariableSet&lt; BCParameter &gt;</text>
</a>
</g>
</g>
<!-- Node9&#45;&gt;Node8 -->
<g id="edge9" class="edge"><title>Node9&#45;&gt;Node8</title>
<path fill="none" stroke="midnightblue" d="M168.355,-163.181C190.054,-163.181 212.376,-163.181 230.991,-163.181"/>
<polygon fill="midnightblue" stroke="midnightblue" points="168.11,-159.681 158.11,-163.181 168.11,-166.681 168.11,-159.681"/>
</g>
<!-- Node10 -->
<g id="node10" class="node"><title>Node10</title>
<g id="a_node10"><a xlink:href="structBCEngineMCMC_1_1Statistics.html" target="_top" xlink:title="A struct for holding statistical information about samples. ">
<polygon fill="white" stroke="black" points="206.5,-115.681 206.5,-134.681 346.5,-134.681 346.5,-115.681 206.5,-115.681"/>
<text text-anchor="middle" x="276.5" y="-122.681" font-family="Helvetica,sans-Serif" font-size="10.00">BCEngineMCMC::Statistics</text>
</a>
</g>
</g>
<!-- Node10&#45;&gt;Node4 -->
<g id="edge10" class="edge"><title>Node10&#45;&gt;Node4</title>
<path fill="none" stroke="#9a32cd" stroke-dasharray="5,2" d="M356.956,-120.727C400.242,-119.331 454.684,-119.248 503,-124.181 510.444,-124.941 518.307,-126.194 525.859,-127.629"/>
<polygon fill="#9a32cd" stroke="#9a32cd" points="356.64,-117.236 346.77,-121.086 356.887,-124.231 356.64,-117.236"/>
<text text-anchor="middle" x="439.5" y="-127.181" font-family="Helvetica,sans-Serif" font-size="10.00"> fMCMCStatistics_AllChains</text>
</g>
<!-- Node11 -->
<g id="node11" class="node"><title>Node11</title>
<g id="a_node11"><a xlink:href="classBCAux_1_1BCTrash.html" target="_top" xlink:title="BCAux::BCTrash\&lt; TObject \&gt;">
<polygon fill="white" stroke="black" points="203.5,-77.6811 203.5,-96.6811 349.5,-96.6811 349.5,-77.6811 203.5,-77.6811"/>
<text text-anchor="middle" x="276.5" y="-84.6811" font-family="Helvetica,sans-Serif" font-size="10.00">BCAux::BCTrash&lt; TObject &gt;</text>
</a>
</g>
</g>
<!-- Node11&#45;&gt;Node4 -->
<g id="edge11" class="edge"><title>Node11&#45;&gt;Node4</title>
<path fill="none" stroke="#9a32cd" stroke-dasharray="5,2" d="M359.805,-86.1117C403.128,-87.4479 456.72,-92.1324 503,-105.181 520.475,-110.108 538.801,-120.034 551.153,-127.531"/>
<polygon fill="#9a32cd" stroke="#9a32cd" points="359.678,-82.6074 349.592,-85.8523 359.5,-89.6052 359.678,-82.6074"/>
<text text-anchor="middle" x="439.5" y="-108.181" font-family="Helvetica,sans-Serif" font-size="10.00"> fObjectTrash</text>
</g>
<!-- Node12 -->
<g id="node12" class="node"><title>Node12</title>
<g id="a_node12"><a xlink:href="classBCVariableSet.html" target="_top" xlink:title="BCVariableSet\&lt; BCObservable \&gt;">
<polygon fill="white" stroke="black" points="195,-39.6811 195,-58.6811 358,-58.6811 358,-39.6811 195,-39.6811"/>
<text text-anchor="middle" x="276.5" y="-46.6811" font-family="Helvetica,sans-Serif" font-size="10.00">BCVariableSet&lt; BCObservable &gt;</text>
</a>
</g>
</g>
<!-- Node12&#45;&gt;Node4 -->
<g id="edge12" class="edge"><title>Node12&#45;&gt;Node4</title>
<path fill="none" stroke="#9a32cd" stroke-dasharray="5,2" d="M368.236,-44.402C411.01,-45.5825 461.611,-52.1197 503,-72.1811 529.021,-84.7934 550.183,-112.855 560.028,-127.641"/>
<polygon fill="#9a32cd" stroke="#9a32cd" points="368.171,-40.9004 358.108,-44.2172 368.043,-47.8992 368.171,-40.9004"/>
<text text-anchor="middle" x="439.5" y="-75.1811" font-family="Helvetica,sans-Serif" font-size="10.00"> fObservables</text>
</g>
<!-- Node13 -->
<g id="node13" class="node"><title>Node13</title>
<g id="a_node13"><a xlink:href="structBCEngineMCMC_1_1ChainState.html" target="_top" xlink:title="A struct for holding a state in a Markov chain. ">
<polygon fill="white" stroke="black" points="203,-1.68114 203,-20.6811 350,-20.6811 350,-1.68114 203,-1.68114"/>
<text text-anchor="middle" x="276.5" y="-8.68114" font-family="Helvetica,sans-Serif" font-size="10.00">BCEngineMCMC::ChainState</text>
</a>
</g>
</g>
<!-- Node13&#45;&gt;Node4 -->
<g id="edge13" class="edge"><title>Node13&#45;&gt;Node4</title>
<path fill="none" stroke="#9a32cd" stroke-dasharray="5,2" d="M351.313,-0.956295C398.184,1.77203 458.227,-2.02554 503,-30.1811 539.68,-53.2473 557.599,-106.055 563.605,-127.681"/>
<polygon fill="#9a32cd" stroke="#9a32cd" points="350.953,2.5273 341.219,-1.65523 351.437,-4.45598 350.953,2.5273"/>
<text text-anchor="middle" x="439.5" y="-33.1811" font-family="Helvetica,sans-Serif" font-size="10.00"> fMCMCTree_State</text>
</g>
<!-- Node14 -->
<g id="node14" class="node"><title>Node14</title>
<g id="a_node14"><a xlink:href="classBCDataSet.html" target="_top" xlink:title="A class representing a set of data points. ">
<polygon fill="white" stroke="black" points="804,-131.681 804,-150.681 871,-150.681 871,-131.681 804,-131.681"/>
<text text-anchor="middle" x="837.5" y="-138.681" font-family="Helvetica,sans-Serif" font-size="10.00">BCDataSet</text>
</a>
</g>
</g>
<!-- Node14&#45;&gt;Node2 -->
<g id="edge14" class="edge"><title>Node14&#45;&gt;Node2</title>
<path fill="none" stroke="#9a32cd" stroke-dasharray="5,2" d="M881.461,-142.929C903.28,-145.861 928.923,-152.707 947,-168.181 977.758,-194.511 988.191,-245.167 991.312,-266.419"/>
<polygon fill="#9a32cd" stroke="#9a32cd" points="881.754,-139.44 871.428,-141.811 880.979,-146.397 881.754,-139.44"/>
<text text-anchor="middle" x="920.5" y="-171.181" font-family="Helvetica,sans-Serif" font-size="10.00"> fDataSet</text>
</g>
</g>
</svg>
