<?xml version="1.0" encoding="UTF-8" standalone="no"?>
<!DOCTYPE svg PUBLIC "-//W3C//DTD SVG 1.1//EN"
 "http://www.w3.org/Graphics/SVG/1.1/DTD/svg11.dtd">
<!-- Generated by graphviz version 2.38.0 (20140413.2041)
 -->
<!-- Title: BCMinimizer::Adapter Pages: 1 -->
<svg width="977pt" height="261pt"
 viewBox="0.00 0.00 977.00 261.00" xmlns="http://www.w3.org/2000/svg" xmlns:xlink="http://www.w3.org/1999/xlink">
<g id="graph0" class="graph" transform="scale(1 1) rotate(0) translate(4 257)">
<title>BCMinimizer::Adapter</title>
<polygon fill="white" stroke="none" points="-4,4 -4,-257 973,-257 973,4 -4,4"/>
<!-- Node1 -->
<g id="node1" class="node"><title>Node1</title>
<polygon fill="#bfbfbf" stroke="black" points="856,-136.5 856,-155.5 969,-155.5 969,-136.5 856,-136.5"/>
<text text-anchor="middle" x="912.5" y="-143.5" font-family="Helvetica,sans-Serif" font-size="10.00">BCMinimizer::Adapter</text>
</g>
<!-- Node2 -->
<g id="node2" class="node"><title>Node2</title>
<polygon fill="white" stroke="#bfbfbf" points="650,-152.5 650,-171.5 808,-171.5 808,-152.5 650,-152.5"/>
<text text-anchor="middle" x="729" y="-159.5" font-family="Helvetica,sans-Serif" font-size="10.00">ROOT::Math::IMultiGenFunction</text>
</g>
<!-- Node2&#45;&gt;Node1 -->
<g id="edge1" class="edge"><title>Node2&#45;&gt;Node1</title>
<path fill="none" stroke="midnightblue" d="M818.294,-154.217C831.139,-153.084 844.05,-151.946 855.996,-150.893"/>
<polygon fill="midnightblue" stroke="midnightblue" points="817.68,-150.757 808.026,-155.122 818.294,-157.73 817.68,-150.757"/>
</g>
<!-- Node3 -->
<g id="node3" class="node"><title>Node3</title>
<g id="a_node3"><a xlink:href="classBCIntegrate.html" target="_top" xlink:title="A class for handling numerical operations for models. ">
<polygon fill="white" stroke="black" points="694.5,-114.5 694.5,-133.5 763.5,-133.5 763.5,-114.5 694.5,-114.5"/>
<text text-anchor="middle" x="729" y="-121.5" font-family="Helvetica,sans-Serif" font-size="10.00">BCIntegrate</text>
</a>
</g>
</g>
<!-- Node3&#45;&gt;Node1 -->
<g id="edge2" class="edge"><title>Node3&#45;&gt;Node1</title>
<path fill="none" stroke="#9a32cd" stroke-dasharray="5,2" d="M773.855,-129.316C798.503,-132.303 829.516,-136.063 855.861,-139.256"/>
<polygon fill="#9a32cd" stroke="#9a32cd" points="774.062,-125.815 763.713,-128.086 773.22,-132.764 774.062,-125.815"/>
<text text-anchor="middle" x="832" y="-140" font-family="Helvetica,sans-Serif" font-size="10.00"> m</text>
</g>
<!-- Node4 -->
<g id="node4" class="node"><title>Node4</title>
<g id="a_node4"><a xlink:href="classBCEngineMCMC.html" target="_top" xlink:title="An engine class for Markov Chain Monte Carlo. ">
<polygon fill="white" stroke="black" points="521,-114.5 521,-133.5 613,-133.5 613,-114.5 521,-114.5"/>
<text text-anchor="middle" x="567" y="-121.5" font-family="Helvetica,sans-Serif" font-size="10.00">BCEngineMCMC</text>
</a>
</g>
</g>
<!-- Node4&#45;&gt;Node3 -->
<g id="edge3" class="edge"><title>Node4&#45;&gt;Node3</title>
<path fill="none" stroke="midnightblue" d="M623.655,-124C647.236,-124 673.937,-124 694.425,-124"/>
<polygon fill="midnightblue" stroke="midnightblue" points="623.422,-120.5 613.422,-124 623.422,-127.5 623.422,-120.5"/>
</g>
<!-- Node5 -->
<g id="node5" class="node"><title>Node5</title>
<g id="a_node5"><a xlink:href="classBCH2D.html" target="_top" xlink:title="A class for handling 2D distributions. ">
<polygon fill="white" stroke="black" points="251,-228.5 251,-247.5 302,-247.5 302,-228.5 251,-228.5"/>
<text text-anchor="middle" x="276.5" y="-235.5" font-family="Helvetica,sans-Serif" font-size="10.00">BCH2D</text>
</a>
</g>
</g>
<!-- Node5&#45;&gt;Node4 -->
<g id="edge4" class="edge"><title>Node5&#45;&gt;Node4</title>
<path fill="none" stroke="#9a32cd" stroke-dasharray="5,2" d="M312.431,-242.056C359.216,-245.749 443.248,-246.139 503,-211 534.185,-192.661 554.285,-152.155 562.192,-133.61"/>
<polygon fill="#9a32cd" stroke="#9a32cd" points="312.476,-238.546 302.206,-241.148 311.857,-245.519 312.476,-238.546"/>
<text text-anchor="middle" x="439.5" y="-245" font-family="Helvetica,sans-Serif" font-size="10.00"> fBCH2DdrawingOptions</text>
</g>
<!-- Node6 -->
<g id="node6" class="node"><title>Node6</title>
<g id="a_node6"><a xlink:href="classBCHistogramBase.html" target="_top" xlink:title="A base class for drawing histograms in BAT style. ">
<polygon fill="white" stroke="black" points="30,-205.5 30,-224.5 128,-224.5 128,-205.5 30,-205.5"/>
<text text-anchor="middle" x="79" y="-212.5" font-family="Helvetica,sans-Serif" font-size="10.00">BCHistogramBase</text>
</a>
</g>
</g>
<!-- Node6&#45;&gt;Node5 -->
<g id="edge5" class="edge"><title>Node6&#45;&gt;Node5</title>
<path fill="none" stroke="midnightblue" d="M138.395,-221.87C175.942,-226.287 222.787,-231.799 250.86,-235.101"/>
<polygon fill="midnightblue" stroke="midnightblue" points="138.416,-218.348 128.075,-220.656 137.598,-225.3 138.416,-218.348"/>
</g>
<!-- Node7 -->
<g id="node7" class="node"><title>Node7</title>
<g id="a_node7"><a xlink:href="classBCH1D.html" target="_top" xlink:title="A class for handling 1D distributions. ">
<polygon fill="white" stroke="black" points="251,-190.5 251,-209.5 302,-209.5 302,-190.5 251,-190.5"/>
<text text-anchor="middle" x="276.5" y="-197.5" font-family="Helvetica,sans-Serif" font-size="10.00">BCH1D</text>
</a>
</g>
</g>
<!-- Node6&#45;&gt;Node7 -->
<g id="edge7" class="edge"><title>Node6&#45;&gt;Node7</title>
<path fill="none" stroke="midnightblue" d="M138.395,-210.52C175.942,-207.639 222.787,-204.044 250.86,-201.89"/>
<polygon fill="midnightblue" stroke="midnightblue" points="137.778,-207.057 128.075,-211.311 138.314,-214.036 137.778,-207.057"/>
</g>
<!-- Node7&#45;&gt;Node4 -->
<g id="edge6" class="edge"><title>Node7&#45;&gt;Node4</title>
<path fill="none" stroke="#9a32cd" stroke-dasharray="5,2" d="M312.384,-200.316C357.848,-199.599 439.087,-194.411 503,-169 523.734,-160.756 544.068,-144.283 555.803,-133.718"/>
<polygon fill="#9a32cd" stroke="#9a32cd" points="312.133,-196.818 302.166,-200.41 312.198,-203.818 312.133,-196.818"/>
<text text-anchor="middle" x="439.5" y="-199" font-family="Helvetica,sans-Serif" font-size="10.00"> fBCH1DdrawingOptions</text>
</g>
<!-- Node8 -->
<g id="node8" class="node"><title>Node8</title>
<g id="a_node8"><a xlink:href="classBCParameterSet.html" target="_top" xlink:title="Wrapper to allow access by name into list of BCParameter. ">
<polygon fill="white" stroke="black" points="231,-152.5 231,-171.5 322,-171.5 322,-152.5 231,-152.5"/>
<text text-anchor="middle" x="276.5" y="-159.5" font-family="Helvetica,sans-Serif" font-size="10.00">BCParameterSet</text>
</a>
</g>
</g>
<!-- Node8&#45;&gt;Node4 -->
<g id="edge8" class="edge"><title>Node8&#45;&gt;Node4</title>
<path fill="none" stroke="#9a32cd" stroke-dasharray="5,2" d="M332.214,-157.913C378.024,-154.076 445.026,-147.496 503,-138 510.519,-136.768 518.488,-135.203 526.138,-133.569"/>
<polygon fill="#9a32cd" stroke="#9a32cd" points="331.876,-154.429 322.197,-158.736 332.45,-161.405 331.876,-154.429"/>
<text text-anchor="middle" x="439.5" y="-157" font-family="Helvetica,sans-Serif" font-size="10.00"> fParameters</text>
</g>
<!-- Node9 -->
<g id="node9" class="node"><title>Node9</title>
<g id="a_node9"><a xlink:href="classBCVariableSet.html" target="_top" xlink:title="BCVariableSet\&lt; BCParameter \&gt;">
<polygon fill="white" stroke="black" points="0,-152.5 0,-171.5 158,-171.5 158,-152.5 0,-152.5"/>
<text text-anchor="middle" x="79" y="-159.5" font-family="Helvetica,sans-Serif" font-size="10.00">BCVariableSet&lt; BCParameter &gt;</text>
</a>
</g>
</g>
<!-- Node9&#45;&gt;Node8 -->
<g id="edge9" class="edge"><title>Node9&#45;&gt;Node8</title>
<path fill="none" stroke="midnightblue" d="M168.355,-162C190.054,-162 212.376,-162 230.991,-162"/>
<polygon fill="midnightblue" stroke="midnightblue" points="168.11,-158.5 158.11,-162 168.11,-165.5 168.11,-158.5"/>
</g>
<!-- Node10 -->
<g id="node10" class="node"><title>Node10</title>
<g id="a_node10"><a xlink:href="structBCEngineMCMC_1_1Statistics.html" target="_top" xlink:title="A struct for holding statistical information about samples. ">
<polygon fill="white" stroke="black" points="206.5,-114.5 206.5,-133.5 346.5,-133.5 346.5,-114.5 206.5,-114.5"/>
<text text-anchor="middle" x="276.5" y="-121.5" font-family="Helvetica,sans-Serif" font-size="10.00">BCEngineMCMC::Statistics</text>
</a>
</g>
</g>
<!-- Node10&#45;&gt;Node4 -->
<g id="edge10" class="edge"><title>Node10&#45;&gt;Node4</title>
<path fill="none" stroke="#9a32cd" stroke-dasharray="5,2" d="M356.618,-124C409.417,-124 476.953,-124 520.828,-124"/>
<polygon fill="#9a32cd" stroke="#9a32cd" points="356.603,-120.5 346.603,-124 356.603,-127.5 356.603,-120.5"/>
<text text-anchor="middle" x="439.5" y="-127" font-family="Helvetica,sans-Serif" font-size="10.00"> fMCMCStatistics_AllChains</text>
</g>
<!-- Node11 -->
<g id="node11" class="node"><title>Node11</title>
<g id="a_node11"><a xlink:href="classBCAux_1_1BCTrash.html" target="_top" xlink:title="BCAux::BCTrash\&lt; TObject \&gt;">
<polygon fill="white" stroke="black" points="203.5,-76.5 203.5,-95.5 349.5,-95.5 349.5,-76.5 203.5,-76.5"/>
<text text-anchor="middle" x="276.5" y="-83.5" font-family="Helvetica,sans-Serif" font-size="10.00">BCAux::BCTrash&lt; TObject &gt;</text>
</a>
</g>
</g>
<!-- Node11&#45;&gt;Node4 -->
<g id="edge11" class="edge"><title>Node11&#45;&gt;Node4</title>
<path fill="none" stroke="#9a32cd" stroke-dasharray="5,2" d="M359.783,-91.7658C402.661,-95.4327 455.854,-101.019 503,-109 511.647,-110.464 520.873,-112.428 529.523,-114.452"/>
<polygon fill="#9a32cd" stroke="#9a32cd" points="359.934,-88.2663 349.678,-90.9206 359.351,-95.242 359.934,-88.2663"/>
<text text-anchor="middle" x="439.5" y="-112" font-family="Helvetica,sans-Serif" font-size="10.00"> fObjectTrash</text>
</g>
<!-- Node12 -->
<g id="node12" class="node"><title>Node12</title>
<g id="a_node12"><a xlink:href="classBCVariableSet.html" target="_top" xlink:title="BCVariableSet\&lt; BCObservable \&gt;">
<polygon fill="white" stroke="black" points="195,-38.5 195,-57.5 358,-57.5 358,-38.5 195,-38.5"/>
<text text-anchor="middle" x="276.5" y="-45.5" font-family="Helvetica,sans-Serif" font-size="10.00">BCVariableSet&lt; BCObservable &gt;</text>
</a>
</g>
</g>
<!-- Node12&#45;&gt;Node4 -->
<g id="edge12" class="edge"><title>Node12&#45;&gt;Node4</title>
<path fill="none" stroke="#9a32cd" stroke-dasharray="5,2" d="M368.144,-50.5038C410.35,-54.1489 460.505,-62.1041 503,-79 523.734,-87.2436 544.068,-103.717 555.803,-114.282"/>
<polygon fill="#9a32cd" stroke="#9a32cd" points="368.401,-47.0133 358.154,-49.7079 367.845,-53.9912 368.401,-47.0133"/>
<text text-anchor="middle" x="439.5" y="-82" font-family="Helvetica,sans-Serif" font-size="10.00"> fObservables</text>
</g>
<!-- Node13 -->
<g id="node13" class="node"><title>Node13</title>
<g id="a_node13"><a xlink:href="structBCEngineMCMC_1_1ChainState.html" target="_top" xlink:title="A struct for holding a state in a Markov chain. ">
<polygon fill="white" stroke="black" points="203,-0.5 203,-19.5 350,-19.5 350,-0.5 203,-0.5"/>
<text text-anchor="middle" x="276.5" y="-7.5" font-family="Helvetica,sans-Serif" font-size="10.00">BCEngineMCMC::ChainState</text>
</a>
</g>
</g>
<!-- Node13&#45;&gt;Node4 -->
<g id="edge13" class="edge"><title>Node13&#45;&gt;Node4</title>
<path fill="none" stroke="#9a32cd" stroke-dasharray="5,2" d="M360.292,-4.34015C405.311,-4.93613 460.343,-11.9143 503,-37 534.185,-55.3394 554.285,-95.8455 562.192,-114.39"/>
<polygon fill="#9a32cd" stroke="#9a32cd" points="360.27,-0.840168 350.259,-4.30938 360.248,-7.84014 360.27,-0.840168"/>
<text text-anchor="middle" x="439.5" y="-40" font-family="Helvetica,sans-Serif" font-size="10.00"> fMCMCTree_State</text>
</g>
</g>
</svg>
