<?xml version="1.0" encoding="UTF-8" standalone="no"?>
<!DOCTYPE svg PUBLIC "-//W3C//DTD SVG 1.1//EN"
 "http://www.w3.org/Graphics/SVG/1.1/DTD/svg11.dtd">
<!-- Generated by graphviz version 2.38.0 (20140413.2041)
 -->
<!-- Title: BCIntegrate Pages: 1 -->
<svg width="459pt" height="252pt"
 viewBox="0.00 0.00 459.00 252.00" xmlns="http://www.w3.org/2000/svg" xmlns:xlink="http://www.w3.org/1999/xlink">
<g id="graph0" class="graph" transform="scale(1 1) rotate(0) translate(4 248)">
<title>BCIntegrate</title>
<polygon fill="white" stroke="none" points="-4,4 -4,-248 455,-248 455,4 -4,4"/>
<!-- Node1 -->
<g id="node1" class="node"><title>Node1</title>
<polygon fill="#bfbfbf" stroke="black" points="191,-168.5 191,-187.5 260,-187.5 260,-168.5 191,-168.5"/>
<text text-anchor="middle" x="225.5" y="-175.5" font-family="Helvetica,sans-Serif" font-size="10.00">BCIntegrate</text>
</g>
<!-- Node3 -->
<g id="node3" class="node"><title>Node3</title>
<g id="a_node3"><a xlink:href="classBCModel.html" target="_top" xlink:title="The base class for all user&#45;defined models. ">
<polygon fill="white" stroke="black" points="197,-112.5 197,-131.5 254,-131.5 254,-112.5 197,-112.5"/>
<text text-anchor="middle" x="225.5" y="-119.5" font-family="Helvetica,sans-Serif" font-size="10.00">BCModel</text>
</a>
</g>
</g>
<!-- Node1&#45;&gt;Node3 -->
<g id="edge2" class="edge"><title>Node1&#45;&gt;Node3</title>
<path fill="none" stroke="midnightblue" d="M225.5,-157.805C225.5,-148.91 225.5,-138.78 225.5,-131.751"/>
<polygon fill="midnightblue" stroke="midnightblue" points="222,-158.083 225.5,-168.083 229,-158.083 222,-158.083"/>
</g>
<!-- Node2 -->
<g id="node2" class="node"><title>Node2</title>
<g id="a_node2"><a xlink:href="classBCEngineMCMC.html" target="_top" xlink:title="An engine class for Markov Chain Monte Carlo. ">
<polygon fill="white" stroke="black" points="179.5,-224.5 179.5,-243.5 271.5,-243.5 271.5,-224.5 179.5,-224.5"/>
<text text-anchor="middle" x="225.5" y="-231.5" font-family="Helvetica,sans-Serif" font-size="10.00">BCEngineMCMC</text>
</a>
</g>
</g>
<!-- Node2&#45;&gt;Node1 -->
<g id="edge1" class="edge"><title>Node2&#45;&gt;Node1</title>
<path fill="none" stroke="midnightblue" d="M225.5,-213.805C225.5,-204.91 225.5,-194.78 225.5,-187.751"/>
<polygon fill="midnightblue" stroke="midnightblue" points="222,-214.083 225.5,-224.083 229,-214.083 222,-214.083"/>
</g>
<!-- Node4 -->
<g id="node4" class="node"><title>Node4</title>
<g id="a_node4"><a xlink:href="classBCEmptyModel.html" target="_top" xlink:title="An empty model, used for reading in a chain. ">
<polygon fill="white" stroke="black" points="24.5,-56.5 24.5,-75.5 110.5,-75.5 110.5,-56.5 24.5,-56.5"/>
<text text-anchor="middle" x="67.5" y="-63.5" font-family="Helvetica,sans-Serif" font-size="10.00">BCEmptyModel</text>
</a>
</g>
</g>
<!-- Node3&#45;&gt;Node4 -->
<g id="edge3" class="edge"><title>Node3&#45;&gt;Node4</title>
<path fill="none" stroke="midnightblue" d="M190.892,-109.172C161.141,-99.0039 118.953,-84.5852 92.4184,-75.5164"/>
<polygon fill="midnightblue" stroke="midnightblue" points="189.87,-112.521 200.464,-112.444 192.134,-105.898 189.87,-112.521"/>
</g>
<!-- Node5 -->
<g id="node5" class="node"><title>Node5</title>
<g id="a_node5"><a xlink:href="classBCFitter.html" target="_top" xlink:title="A base class for all fitting classes. ">
<polygon fill="white" stroke="black" points="129,-56.5 129,-75.5 182,-75.5 182,-56.5 129,-56.5"/>
<text text-anchor="middle" x="155.5" y="-63.5" font-family="Helvetica,sans-Serif" font-size="10.00">BCFitter</text>
</a>
</g>
</g>
<!-- Node3&#45;&gt;Node5 -->
<g id="edge4" class="edge"><title>Node3&#45;&gt;Node5</title>
<path fill="none" stroke="midnightblue" d="M206.186,-106.101C193.588,-96.3824 177.572,-84.0269 166.951,-75.8339"/>
<polygon fill="midnightblue" stroke="midnightblue" points="204.198,-108.987 214.253,-112.324 208.473,-103.445 204.198,-108.987"/>
</g>
<!-- Node9 -->
<g id="node9" class="node"><title>Node9</title>
<g id="a_node9"><a xlink:href="classBCMTF.html" target="_top" xlink:title="A class for fitting several templates to a data set. ">
<polygon fill="white" stroke="black" points="200,-56.5 200,-75.5 251,-75.5 251,-56.5 200,-56.5"/>
<text text-anchor="middle" x="225.5" y="-63.5" font-family="Helvetica,sans-Serif" font-size="10.00">BCMTF</text>
</a>
</g>
</g>
<!-- Node3&#45;&gt;Node9 -->
<g id="edge8" class="edge"><title>Node3&#45;&gt;Node9</title>
<path fill="none" stroke="midnightblue" d="M225.5,-101.805C225.5,-92.9102 225.5,-82.7798 225.5,-75.7511"/>
<polygon fill="midnightblue" stroke="midnightblue" points="222,-102.083 225.5,-112.083 229,-102.083 222,-102.083"/>
</g>
<!-- Node10 -->
<g id="node10" class="node"><title>Node10</title>
<g id="a_node10"><a xlink:href="classBCPriorModel.html" target="_top" xlink:title="Class for sampling from prior of a BCModel. ">
<polygon fill="white" stroke="black" points="269,-56.5 269,-75.5 346,-75.5 346,-56.5 269,-56.5"/>
<text text-anchor="middle" x="307.5" y="-63.5" font-family="Helvetica,sans-Serif" font-size="10.00">BCPriorModel</text>
</a>
</g>
</g>
<!-- Node3&#45;&gt;Node10 -->
<g id="edge9" class="edge"><title>Node3&#45;&gt;Node10</title>
<path fill="none" stroke="midnightblue" d="M247.333,-106.622C262.313,-96.7574 281.697,-83.9919 294.358,-75.6545"/>
<polygon fill="midnightblue" stroke="midnightblue" points="245.101,-103.901 238.675,-112.324 248.951,-109.747 245.101,-103.901"/>
</g>
<!-- Node11 -->
<g id="node11" class="node"><title>Node11</title>
<g id="a_node11"><a xlink:href="classBCRooInterface.html" target="_top" xlink:title="Interface allowing to run BAT on a problem/data defined in a standard RooFit workspace format...">
<polygon fill="white" stroke="black" points="364,-56.5 364,-75.5 451,-75.5 451,-56.5 364,-56.5"/>
<text text-anchor="middle" x="407.5" y="-63.5" font-family="Helvetica,sans-Serif" font-size="10.00">BCRooInterface</text>
</a>
</g>
</g>
<!-- Node3&#45;&gt;Node11 -->
<g id="edge10" class="edge"><title>Node3&#45;&gt;Node11</title>
<path fill="none" stroke="midnightblue" d="M264.031,-109.568C298.364,-99.381 347.833,-84.7034 378.796,-75.5164"/>
<polygon fill="midnightblue" stroke="midnightblue" points="262.93,-106.244 254.338,-112.444 264.921,-112.954 262.93,-106.244"/>
</g>
<!-- Node6 -->
<g id="node6" class="node"><title>Node6</title>
<g id="a_node6"><a xlink:href="classBCEfficiencyFitter.html" target="_top" xlink:title="A class for fitting histograms with functions. ">
<polygon fill="white" stroke="black" points="0,-0.5 0,-19.5 97,-19.5 97,-0.5 0,-0.5"/>
<text text-anchor="middle" x="48.5" y="-7.5" font-family="Helvetica,sans-Serif" font-size="10.00">BCEfficiencyFitter</text>
</a>
</g>
</g>
<!-- Node5&#45;&gt;Node6 -->
<g id="edge5" class="edge"><title>Node5&#45;&gt;Node6</title>
<path fill="none" stroke="midnightblue" d="M129.198,-51.7261C109.385,-41.7271 82.7925,-28.3065 65.6487,-19.6545"/>
<polygon fill="midnightblue" stroke="midnightblue" points="127.804,-54.9431 138.309,-56.324 130.958,-48.6938 127.804,-54.9431"/>
</g>
<!-- Node7 -->
<g id="node7" class="node"><title>Node7</title>
<g id="a_node7"><a xlink:href="classBCGraphFitter.html" target="_top" xlink:title="A class for fitting graphs with functions. ">
<polygon fill="white" stroke="black" points="115.5,-0.5 115.5,-19.5 195.5,-19.5 195.5,-0.5 115.5,-0.5"/>
<text text-anchor="middle" x="155.5" y="-7.5" font-family="Helvetica,sans-Serif" font-size="10.00">BCGraphFitter</text>
</a>
</g>
</g>
<!-- Node5&#45;&gt;Node7 -->
<g id="edge6" class="edge"><title>Node5&#45;&gt;Node7</title>
<path fill="none" stroke="midnightblue" d="M155.5,-45.8045C155.5,-36.9102 155.5,-26.7798 155.5,-19.7511"/>
<polygon fill="midnightblue" stroke="midnightblue" points="152,-46.083 155.5,-56.083 159,-46.083 152,-46.083"/>
</g>
<!-- Node8 -->
<g id="node8" class="node"><title>Node8</title>
<g id="a_node8"><a xlink:href="classBCHistogramFitter.html" target="_top" xlink:title="A class for fitting histograms with functions. ">
<polygon fill="white" stroke="black" points="213.5,-0.5 213.5,-19.5 311.5,-19.5 311.5,-0.5 213.5,-0.5"/>
<text text-anchor="middle" x="262.5" y="-7.5" font-family="Helvetica,sans-Serif" font-size="10.00">BCHistogramFitter</text>
</a>
</g>
</g>
<!-- Node5&#45;&gt;Node8 -->
<g id="edge7" class="edge"><title>Node5&#45;&gt;Node8</title>
<path fill="none" stroke="midnightblue" d="M181.802,-51.7261C201.615,-41.7271 228.207,-28.3065 245.351,-19.6545"/>
<polygon fill="midnightblue" stroke="midnightblue" points="180.042,-48.6938 172.691,-56.324 183.196,-54.9431 180.042,-48.6938"/>
</g>
</g>
</svg>
