<?xml version="1.0" encoding="UTF-8" standalone="no"?>
<!DOCTYPE svg PUBLIC "-//W3C//DTD SVG 1.1//EN"
 "http://www.w3.org/Graphics/SVG/1.1/DTD/svg11.dtd">
<!-- Generated by graphviz version 2.38.0 (20140413.2041)
 -->
<!-- Title: BCModel Pages: 1 -->
<!--zoomable 284 -->
<svg id="main" version="1.1" xmlns="http://www.w3.org/2000/svg" xmlns:xlink="http://www.w3.org/1999/xlink" xml:space="preserve" onload="init(evt)">
<style type="text/css"><![CDATA[
.edge:hover path { stroke: red; }
.edge:hover polygon { stroke: red; fill: red; }
]]></style>
<script type="text/javascript"><![CDATA[
var edges = document.getElementsByTagName('g');
if (edges && edges.length) {
  for (var i=0;i<edges.length;i++) {
    if (edges[i].id.substr(0,4)=='edge') {
      edges[i].setAttribute('class','edge');
    }
  }
}
]]></script>
        <defs>
                <circle id="rim" cx="0" cy="0" r="7"/>
                <circle id="rim2" cx="0" cy="0" r="3.5"/>
                <g id="zoomPlus">
                        <use xlink:href="#rim" fill="#404040">
                                <set attributeName="fill" to="#808080" begin="zoomplus.mouseover" end="zoomplus.mouseout"/>
                        </use>
                        <path d="M-4,0h8M0,-4v8" fill="none" stroke="white" stroke-width="1.5" pointer-events="none"/>
                </g>
                <g id="zoomMin">
                        <use xlink:href="#rim" fill="#404040">
                                <set attributeName="fill" to="#808080" begin="zoomminus.mouseover" end="zoomminus.mouseout"/>
                        </use>
                        <path d="M-4,0h8" fill="none" stroke="white" stroke-width="1.5" pointer-events="none"/>
                </g>
                <g id="dirArrow">
                        <path fill="none" stroke="white" stroke-width="1.5" d="M0,-3.0v7 M-2.5,-0.5L0,-3.0L2.5,-0.5"/>
                </g>
               <g id="resetDef">
                       <use xlink:href="#rim2" fill="#404040">
                               <set attributeName="fill" to="#808080" begin="reset.mouseover" end="reset.mouseout"/>
                       </use>
               </g>
        </defs>

<script type="text/javascript">
var viewWidth = 1178;
var viewHeight = 284;
var sectionId = 'dynsection-1';
</script>
<script xlink:href="svgpan.js"/>
<svg id="graph" class="graph">
<g id="viewport">
<title>BCModel</title>
<polygon fill="white" stroke="none" points="-4,4 -4,-280.181 1174,-280.181 1174,4 -4,4"/>
<!-- Node1 -->
<g id="node1" class="node"><title>Node1</title>
<polygon fill="#bfbfbf" stroke="black" points="947,-191.681 947,-210.681 1004,-210.681 1004,-191.681 947,-191.681"/>
<text text-anchor="middle" x="975.5" y="-198.681" font-family="Helvetica,sans-Serif" font-size="10.00">BCModel</text>
</g>
<!-- Node14 -->
<g id="node14" class="node"><title>Node14</title>
<g id="a_node14"><a xlink:href="classBCPriorModel.html" target="_top" xlink:title="Class for sampling from prior of a BCModel. ">
<polygon fill="white" stroke="black" points="1093,-191.681 1093,-210.681 1170,-210.681 1170,-191.681 1093,-191.681"/>
<text text-anchor="middle" x="1131.5" y="-198.681" font-family="Helvetica,sans-Serif" font-size="10.00">BCPriorModel</text>
</a>
</g>
</g>
<!-- Node1&#45;&gt;Node14 -->
<g id="edge17" class="edge"><title>Node1&#45;&gt;Node14</title>
<path fill="none" stroke="midnightblue" d="M1014.22,-211.917C1016.84,-212.419 1019.45,-212.85 1022,-213.181 1045.36,-216.21 1051.58,-215.684 1075,-213.181 1080.78,-212.563 1086.85,-211.592 1092.76,-210.465"/>
<polygon fill="midnightblue" stroke="midnightblue" points="1014.71,-208.442 1004.19,-209.695 1013.19,-215.276 1014.71,-208.442"/>
</g>
<!-- Node1&#45;&gt;Node14 -->
<g id="edge18" class="edge"><title>Node1&#45;&gt;Node14</title>
<path fill="none" stroke="#9a32cd" stroke-dasharray="5,2" d="M1014.64,-200.281C1017.13,-200.242 1019.6,-200.208 1022,-200.181 1045.55,-199.922 1051.45,-199.969 1075,-200.181 1080.78,-200.233 1086.9,-200.316 1092.88,-200.412"/>
<polygon fill="#9a32cd" stroke="#9a32cd" points="1014.34,-196.786 1004.41,-200.471 1014.47,-203.785 1014.34,-196.786"/>
<text text-anchor="middle" x="1048.5" y="-203.181" font-family="Helvetica,sans-Serif" font-size="10.00"> fModel</text>
</g>
<!-- Node2 -->
<g id="node2" class="node"><title>Node2</title>
<g id="a_node2"><a xlink:href="classBCIntegrate.html" target="_top" xlink:title="A class for handling numerical operations for models. ">
<polygon fill="white" stroke="black" points="799,-169.681 799,-188.681 868,-188.681 868,-169.681 799,-169.681"/>
<text text-anchor="middle" x="833.5" y="-176.681" font-family="Helvetica,sans-Serif" font-size="10.00">BCIntegrate</text>
</a>
</g>
</g>
<!-- Node2&#45;&gt;Node1 -->
<g id="edge1" class="edge"><title>Node2&#45;&gt;Node1</title>
<path fill="none" stroke="midnightblue" d="M878.021,-186.02C900.502,-189.553 927.257,-193.757 946.884,-196.841"/>
<polygon fill="midnightblue" stroke="midnightblue" points="878.456,-182.546 868.033,-184.451 877.369,-189.461 878.456,-182.546"/>
</g>
<!-- Node3 -->
<g id="node3" class="node"><title>Node3</title>
<g id="a_node3"><a xlink:href="classBCEngineMCMC.html" target="_top" xlink:title="An engine class for Markov Chain Monte Carlo. ">
<polygon fill="white" stroke="black" points="521,-127.681 521,-146.681 613,-146.681 613,-127.681 521,-127.681"/>
<text text-anchor="middle" x="567" y="-134.681" font-family="Helvetica,sans-Serif" font-size="10.00">BCEngineMCMC</text>
</a>
</g>
</g>
<!-- Node3&#45;&gt;Node2 -->
<g id="edge2" class="edge"><title>Node3&#45;&gt;Node2</title>
<path fill="none" stroke="midnightblue" d="M623.085,-145.928C676.097,-154.346 754.551,-166.804 798.849,-173.838"/>
<polygon fill="midnightblue" stroke="midnightblue" points="623.594,-142.465 613.169,-144.353 622.496,-149.379 623.594,-142.465"/>
</g>
<!-- Node4 -->
<g id="node4" class="node"><title>Node4</title>
<g id="a_node4"><a xlink:href="classBCH2D.html" target="_top" xlink:title="A class for handling 2D distributions. ">
<polygon fill="white" stroke="black" points="251,-242.681 251,-261.681 302,-261.681 302,-242.681 251,-242.681"/>
<text text-anchor="middle" x="276.5" y="-249.681" font-family="Helvetica,sans-Serif" font-size="10.00">BCH2D</text>
</a>
</g>
</g>
<!-- Node4&#45;&gt;Node1 -->
<g id="edge14" class="edge"><title>Node4&#45;&gt;Node1</title>
<path fill="none" stroke="#9a32cd" stroke-dasharray="5,2" d="M312.34,-256.144C331.162,-258.088 354.822,-260.216 376,-261.181 556.155,-269.394 601.657,-255.146 781,-236.181 846.895,-229.213 864.626,-233.887 929,-218.181 936.701,-216.302 944.881,-213.511 952.15,-210.731"/>
<polygon fill="#9a32cd" stroke="#9a32cd" points="312.464,-252.638 302.15,-255.061 311.724,-259.599 312.464,-252.638"/>
<text text-anchor="middle" x="706" y="-268.181" font-family="Helvetica,sans-Serif" font-size="10.00"> fBCH2DPosteriorDrawingOptions</text>
<text text-anchor="middle" x="706" y="-257.181" font-family="Helvetica,sans-Serif" font-size="10.00">fBCH2DPriorDrawingOptions</text>
</g>
<!-- Node4&#45;&gt;Node3 -->
<g id="edge3" class="edge"><title>Node4&#45;&gt;Node3</title>
<path fill="none" stroke="#9a32cd" stroke-dasharray="5,2" d="M312.433,-251.907C358.878,-250.112 442.166,-241.809 503,-207.181 529.145,-192.299 550.252,-162.648 560.057,-147.146"/>
<polygon fill="#9a32cd" stroke="#9a32cd" points="312.167,-248.413 302.279,-252.217 312.381,-255.41 312.167,-248.413"/>
<text text-anchor="middle" x="439.5" y="-249.181" font-family="Helvetica,sans-Serif" font-size="10.00"> fBCH2DdrawingOptions</text>
</g>
<!-- Node5 -->
<g id="node5" class="node"><title>Node5</title>
<g id="a_node5"><a xlink:href="classBCHistogramBase.html" target="_top" xlink:title="A base class for drawing histograms in BAT style. ">
<polygon fill="white" stroke="black" points="30,-219.681 30,-238.681 128,-238.681 128,-219.681 30,-219.681"/>
<text text-anchor="middle" x="79" y="-226.681" font-family="Helvetica,sans-Serif" font-size="10.00">BCHistogramBase</text>
</a>
</g>
</g>
<!-- Node5&#45;&gt;Node4 -->
<g id="edge4" class="edge"><title>Node5&#45;&gt;Node4</title>
<path fill="none" stroke="midnightblue" d="M138.395,-236.051C175.942,-240.468 222.787,-245.98 250.86,-249.282"/>
<polygon fill="midnightblue" stroke="midnightblue" points="138.416,-232.529 128.075,-234.837 137.598,-239.482 138.416,-232.529"/>
</g>
<!-- Node6 -->
<g id="node6" class="node"><title>Node6</title>
<g id="a_node6"><a xlink:href="classBCH1D.html" target="_top" xlink:title="A class for handling 1D distributions. ">
<polygon fill="white" stroke="black" points="251,-204.681 251,-223.681 302,-223.681 302,-204.681 251,-204.681"/>
<text text-anchor="middle" x="276.5" y="-211.681" font-family="Helvetica,sans-Serif" font-size="10.00">BCH1D</text>
</a>
</g>
</g>
<!-- Node5&#45;&gt;Node6 -->
<g id="edge6" class="edge"><title>Node5&#45;&gt;Node6</title>
<path fill="none" stroke="midnightblue" d="M138.395,-224.701C175.942,-221.82 222.787,-218.226 250.86,-216.072"/>
<polygon fill="midnightblue" stroke="midnightblue" points="137.778,-221.238 128.075,-225.493 138.314,-228.217 137.778,-221.238"/>
</g>
<!-- Node6&#45;&gt;Node1 -->
<g id="edge15" class="edge"><title>Node6&#45;&gt;Node1</title>
<path fill="none" stroke="#9a32cd" stroke-dasharray="5,2" d="M312.205,-213.925C409.525,-213.137 693.318,-210.349 929,-203.181 934.69,-203.008 940.779,-202.774 946.592,-202.527"/>
<polygon fill="#9a32cd" stroke="#9a32cd" points="312.031,-210.427 302.059,-214.006 312.086,-217.426 312.031,-210.427"/>
<text text-anchor="middle" x="706" y="-224.181" font-family="Helvetica,sans-Serif" font-size="10.00"> fBCH1DPosteriorDrawingOptions</text>
<text text-anchor="middle" x="706" y="-213.181" font-family="Helvetica,sans-Serif" font-size="10.00">fBCH1DPriorDrawingOptions</text>
</g>
<!-- Node6&#45;&gt;Node3 -->
<g id="edge5" class="edge"><title>Node6&#45;&gt;Node3</title>
<path fill="none" stroke="#9a32cd" stroke-dasharray="5,2" d="M312.057,-206.103C330.916,-201.785 354.698,-196.487 376,-192.181 432.225,-180.816 448.632,-187.474 503,-169.181 519.859,-163.509 537.832,-153.996 550.247,-146.813"/>
<polygon fill="#9a32cd" stroke="#9a32cd" points="311.093,-202.733 302.134,-208.388 312.664,-209.554 311.093,-202.733"/>
<text text-anchor="middle" x="439.5" y="-195.181" font-family="Helvetica,sans-Serif" font-size="10.00"> fBCH1DdrawingOptions</text>
</g>
<!-- Node7 -->
<g id="node7" class="node"><title>Node7</title>
<g id="a_node7"><a xlink:href="classBCParameterSet.html" target="_top" xlink:title="Wrapper to allow access by name into list of BCParameter. ">
<polygon fill="white" stroke="black" points="231,-153.681 231,-172.681 322,-172.681 322,-153.681 231,-153.681"/>
<text text-anchor="middle" x="276.5" y="-160.681" font-family="Helvetica,sans-Serif" font-size="10.00">BCParameterSet</text>
</a>
</g>
</g>
<!-- Node7&#45;&gt;Node3 -->
<g id="edge7" class="edge"><title>Node7&#45;&gt;Node3</title>
<path fill="none" stroke="#9a32cd" stroke-dasharray="5,2" d="M332.447,-158.229C387.022,-153.311 469.712,-145.859 520.657,-141.267"/>
<polygon fill="#9a32cd" stroke="#9a32cd" points="331.907,-154.764 322.262,-159.147 332.535,-161.735 331.907,-154.764"/>
<text text-anchor="middle" x="439.5" y="-157.181" font-family="Helvetica,sans-Serif" font-size="10.00"> fParameters</text>
</g>
<!-- Node8 -->
<g id="node8" class="node"><title>Node8</title>
<g id="a_node8"><a xlink:href="classBCVariableSet.html" target="_top" xlink:title="BCVariableSet\&lt; BCParameter \&gt;">
<polygon fill="white" stroke="black" points="0,-153.681 0,-172.681 158,-172.681 158,-153.681 0,-153.681"/>
<text text-anchor="middle" x="79" y="-160.681" font-family="Helvetica,sans-Serif" font-size="10.00">BCVariableSet&lt; BCParameter &gt;</text>
</a>
</g>
</g>
<!-- Node8&#45;&gt;Node7 -->
<g id="edge8" class="edge"><title>Node8&#45;&gt;Node7</title>
<path fill="none" stroke="midnightblue" d="M168.355,-163.181C190.054,-163.181 212.376,-163.181 230.991,-163.181"/>
<polygon fill="midnightblue" stroke="midnightblue" points="168.11,-159.681 158.11,-163.181 168.11,-166.681 168.11,-159.681"/>
</g>
<!-- Node9 -->
<g id="node9" class="node"><title>Node9</title>
<g id="a_node9"><a xlink:href="structBCEngineMCMC_1_1Statistics.html" target="_top" xlink:title="A struct for holding statistical information about samples. ">
<polygon fill="white" stroke="black" points="206.5,-115.681 206.5,-134.681 346.5,-134.681 346.5,-115.681 206.5,-115.681"/>
<text text-anchor="middle" x="276.5" y="-122.681" font-family="Helvetica,sans-Serif" font-size="10.00">BCEngineMCMC::Statistics</text>
</a>
</g>
</g>
<!-- Node9&#45;&gt;Node3 -->
<g id="edge9" class="edge"><title>Node9&#45;&gt;Node3</title>
<path fill="none" stroke="#9a32cd" stroke-dasharray="5,2" d="M356.956,-120.727C400.242,-119.331 454.684,-119.248 503,-124.181 510.444,-124.941 518.307,-126.194 525.859,-127.629"/>
<polygon fill="#9a32cd" stroke="#9a32cd" points="356.64,-117.236 346.77,-121.086 356.887,-124.231 356.64,-117.236"/>
<text text-anchor="middle" x="439.5" y="-127.181" font-family="Helvetica,sans-Serif" font-size="10.00"> fMCMCStatistics_AllChains</text>
</g>
<!-- Node10 -->
<g id="node10" class="node"><title>Node10</title>
<g id="a_node10"><a xlink:href="classBCAux_1_1BCTrash.html" target="_top" xlink:title="BCAux::BCTrash\&lt; TObject \&gt;">
<polygon fill="white" stroke="black" points="203.5,-77.6811 203.5,-96.6811 349.5,-96.6811 349.5,-77.6811 203.5,-77.6811"/>
<text text-anchor="middle" x="276.5" y="-84.6811" font-family="Helvetica,sans-Serif" font-size="10.00">BCAux::BCTrash&lt; TObject &gt;</text>
</a>
</g>
</g>
<!-- Node10&#45;&gt;Node3 -->
<g id="edge10" class="edge"><title>Node10&#45;&gt;Node3</title>
<path fill="none" stroke="#9a32cd" stroke-dasharray="5,2" d="M359.805,-86.1117C403.128,-87.4479 456.72,-92.1324 503,-105.181 520.475,-110.108 538.801,-120.034 551.153,-127.531"/>
<polygon fill="#9a32cd" stroke="#9a32cd" points="359.678,-82.6074 349.592,-85.8523 359.5,-89.6052 359.678,-82.6074"/>
<text text-anchor="middle" x="439.5" y="-108.181" font-family="Helvetica,sans-Serif" font-size="10.00"> fObjectTrash</text>
</g>
<!-- Node11 -->
<g id="node11" class="node"><title>Node11</title>
<g id="a_node11"><a xlink:href="classBCVariableSet.html" target="_top" xlink:title="BCVariableSet\&lt; BCObservable \&gt;">
<polygon fill="white" stroke="black" points="195,-39.6811 195,-58.6811 358,-58.6811 358,-39.6811 195,-39.6811"/>
<text text-anchor="middle" x="276.5" y="-46.6811" font-family="Helvetica,sans-Serif" font-size="10.00">BCVariableSet&lt; BCObservable &gt;</text>
</a>
</g>
</g>
<!-- Node11&#45;&gt;Node3 -->
<g id="edge11" class="edge"><title>Node11&#45;&gt;Node3</title>
<path fill="none" stroke="#9a32cd" stroke-dasharray="5,2" d="M368.236,-44.402C411.01,-45.5825 461.611,-52.1197 503,-72.1811 529.021,-84.7934 550.183,-112.855 560.028,-127.641"/>
<polygon fill="#9a32cd" stroke="#9a32cd" points="368.171,-40.9004 358.108,-44.2172 368.043,-47.8992 368.171,-40.9004"/>
<text text-anchor="middle" x="439.5" y="-75.1811" font-family="Helvetica,sans-Serif" font-size="10.00"> fObservables</text>
</g>
<!-- Node12 -->
<g id="node12" class="node"><title>Node12</title>
<g id="a_node12"><a xlink:href="structBCEngineMCMC_1_1ChainState.html" target="_top" xlink:title="A struct for holding a state in a Markov chain. ">
<polygon fill="white" stroke="black" points="203,-1.68114 203,-20.6811 350,-20.6811 350,-1.68114 203,-1.68114"/>
<text text-anchor="middle" x="276.5" y="-8.68114" font-family="Helvetica,sans-Serif" font-size="10.00">BCEngineMCMC::ChainState</text>
</a>
</g>
</g>
<!-- Node12&#45;&gt;Node3 -->
<g id="edge12" class="edge"><title>Node12&#45;&gt;Node3</title>
<path fill="none" stroke="#9a32cd" stroke-dasharray="5,2" d="M351.313,-0.956295C398.184,1.77203 458.227,-2.02554 503,-30.1811 539.68,-53.2473 557.599,-106.055 563.605,-127.681"/>
<polygon fill="#9a32cd" stroke="#9a32cd" points="350.953,2.5273 341.219,-1.65523 351.437,-4.45598 350.953,2.5273"/>
<text text-anchor="middle" x="439.5" y="-33.1811" font-family="Helvetica,sans-Serif" font-size="10.00"> fMCMCTree_State</text>
</g>
<!-- Node13 -->
<g id="node13" class="node"><title>Node13</title>
<g id="a_node13"><a xlink:href="classBCDataSet.html" target="_top" xlink:title="A class representing a set of data points. ">
<polygon fill="white" stroke="black" points="800,-131.681 800,-150.681 867,-150.681 867,-131.681 800,-131.681"/>
<text text-anchor="middle" x="833.5" y="-138.681" font-family="Helvetica,sans-Serif" font-size="10.00">BCDataSet</text>
</a>
</g>
</g>
<!-- Node13&#45;&gt;Node1 -->
<g id="edge13" class="edge"><title>Node13&#45;&gt;Node1</title>
<path fill="none" stroke="#9a32cd" stroke-dasharray="5,2" d="M877.085,-153.351C893.62,-158.655 912.511,-165.437 929,-173.181 940.082,-178.386 951.833,-185.668 960.616,-191.501"/>
<polygon fill="#9a32cd" stroke="#9a32cd" points="877.725,-149.885 867.136,-150.245 875.638,-156.566 877.725,-149.885"/>
<text text-anchor="middle" x="907.5" y="-176.181" font-family="Helvetica,sans-Serif" font-size="10.00"> fDataSet</text>
</g>
<!-- Node14&#45;&gt;Node1 -->
<g id="edge16" class="edge"><title>Node14&#45;&gt;Node1</title>
<path fill="none" stroke="#9a32cd" stroke-dasharray="5,2" d="M1110.21,-185.525C1100.19,-178.772 1087.58,-171.638 1075,-168.181 1052.29,-161.939 1044.41,-160.911 1022,-168.181 1007.89,-172.759 994.496,-183.534 985.941,-191.534"/>
<polygon fill="#9a32cd" stroke="#9a32cd" points="1108.42,-188.552 1118.6,-191.503 1112.48,-182.85 1108.42,-188.552"/>
<text text-anchor="middle" x="1048.5" y="-171.181" font-family="Helvetica,sans-Serif" font-size="10.00"> fPriorModel</text>
</g>
</g>
</svg>
        <g id="navigator" transform="translate(0 0)" fill="#404254">
                <rect fill="#f2f5e9" fill-opacity="0.5" stroke="#606060" stroke-width=".5" x="0" y="0" width="60" height="60"/>
                <use id="zoomplus" xlink:href="#zoomPlus" x="17" y="9" onmousedown="handleZoom(evt,'in')"/>
                <use id="zoomminus" xlink:href="#zoomMin" x="42" y="9" onmousedown="handleZoom(evt,'out')"/>
                <use id="reset" xlink:href="#resetDef" x="30" y="36" onmousedown="handleReset()"/>
                <g id="arrowUp" xlink:href="#dirArrow" transform="translate(30 24)" onmousedown="handlePan(0,-1)">
                  <use xlink:href="#rim" fill="#404040">
                        <set attributeName="fill" to="#808080" begin="arrowUp.mouseover" end="arrowUp.mouseout"/>
                  </use>
                  <path fill="none" stroke="white" stroke-width="1.5" d="M0,-3.0v7 M-2.5,-0.5L0,-3.0L2.5,-0.5"/>
                </g>
                <g id="arrowRight" xlink:href="#dirArrow" transform="rotate(90) translate(36 -43)" onmousedown="handlePan(1,0)">
                  <use xlink:href="#rim" fill="#404040">
                        <set attributeName="fill" to="#808080" begin="arrowRight.mouseover" end="arrowRight.mouseout"/>
                  </use>
                  <path fill="none" stroke="white" stroke-width="1.5" d="M0,-3.0v7 M-2.5,-0.5L0,-3.0L2.5,-0.5"/>
                </g>
                <g id="arrowDown" xlink:href="#dirArrow" transform="rotate(180) translate(-30 -48)" onmousedown="handlePan(0,1)">
                  <use xlink:href="#rim" fill="#404040">
                        <set attributeName="fill" to="#808080" begin="arrowDown.mouseover" end="arrowDown.mouseout"/>
                  </use>
                  <path fill="none" stroke="white" stroke-width="1.5" d="M0,-3.0v7 M-2.5,-0.5L0,-3.0L2.5,-0.5"/>
                </g>
                <g id="arrowLeft" xlink:href="#dirArrow" transform="rotate(270) translate(-36 17)" onmousedown="handlePan(-1,0)">
                  <use xlink:href="#rim" fill="#404040">
                        <set attributeName="fill" to="#808080" begin="arrowLeft.mouseover" end="arrowLeft.mouseout"/>
                  </use>
                  <path fill="none" stroke="white" stroke-width="1.5" d="M0,-3.0v7 M-2.5,-0.5L0,-3.0L2.5,-0.5"/>
                </g>
        </g>
        <svg viewBox="0 0 15 15" width="100%" height="30px" preserveAspectRatio="xMaxYMin meet">
         <g id="arrow_out" transform="scale(0.3 0.3)">
          <a xlink:href="classBCModel__coll__graph_org.svg" target="_base">
           <rect id="button" ry="5" rx="5" y="6" x="6" height="38" width="38"
                fill="#f2f5e9" fill-opacity="0.5" stroke="#606060" stroke-width="1.0"/>
           <path id="arrow"
             d="M 11.500037,31.436501 C 11.940474,20.09759 22.043105,11.32322 32.158766,21.979434 L 37.068811,17.246167 C 37.068811,17.246167 37.088388,32 37.088388,32 L 22.160133,31.978069 C 22.160133,31.978069 26.997745,27.140456 26.997745,27.140456 C 18.528582,18.264221 13.291696,25.230495 11.500037,31.436501 z"
             style="fill:#404040;"/>
          </a>
         </g>
        </svg>
</svg>
