<?xml version="1.0" encoding="UTF-8" standalone="no"?>
<!DOCTYPE svg PUBLIC "-//W3C//DTD SVG 1.1//EN"
 "http://www.w3.org/Graphics/SVG/1.1/DTD/svg11.dtd">
<!-- Generated by graphviz version 2.38.0 (20140413.2041)
 -->
<!-- Title: BCFitter Pages: 1 -->
<svg width="320pt" height="252pt"
 viewBox="0.00 0.00 319.50 252.00" xmlns="http://www.w3.org/2000/svg" xmlns:xlink="http://www.w3.org/1999/xlink">
<g id="graph0" class="graph" transform="scale(1 1) rotate(0) translate(4 248)">
<title>BCFitter</title>
<polygon fill="white" stroke="none" points="-4,4 -4,-248 315.5,-248 315.5,4 -4,4"/>
<!-- Node1 -->
<g id="node1" class="node"><title>Node1</title>
<polygon fill="#bfbfbf" stroke="black" points="129,-56.5 129,-75.5 182,-75.5 182,-56.5 129,-56.5"/>
<text text-anchor="middle" x="155.5" y="-63.5" font-family="Helvetica,sans-Serif" font-size="10.00">BCFitter</text>
</g>
<!-- Node5 -->
<g id="node5" class="node"><title>Node5</title>
<g id="a_node5"><a xlink:href="classBCEfficiencyFitter.html" target="_top" xlink:title="A class for fitting histograms with functions. ">
<polygon fill="white" stroke="black" points="0,-0.5 0,-19.5 97,-19.5 97,-0.5 0,-0.5"/>
<text text-anchor="middle" x="48.5" y="-7.5" font-family="Helvetica,sans-Serif" font-size="10.00">BCEfficiencyFitter</text>
</a>
</g>
</g>
<!-- Node1&#45;&gt;Node5 -->
<g id="edge4" class="edge"><title>Node1&#45;&gt;Node5</title>
<path fill="none" stroke="midnightblue" d="M129.198,-51.7261C109.385,-41.7271 82.7925,-28.3065 65.6487,-19.6545"/>
<polygon fill="midnightblue" stroke="midnightblue" points="127.804,-54.9431 138.309,-56.324 130.958,-48.6938 127.804,-54.9431"/>
</g>
<!-- Node6 -->
<g id="node6" class="node"><title>Node6</title>
<g id="a_node6"><a xlink:href="classBCGraphFitter.html" target="_top" xlink:title="A class for fitting graphs with functions. ">
<polygon fill="white" stroke="black" points="115.5,-0.5 115.5,-19.5 195.5,-19.5 195.5,-0.5 115.5,-0.5"/>
<text text-anchor="middle" x="155.5" y="-7.5" font-family="Helvetica,sans-Serif" font-size="10.00">BCGraphFitter</text>
</a>
</g>
</g>
<!-- Node1&#45;&gt;Node6 -->
<g id="edge5" class="edge"><title>Node1&#45;&gt;Node6</title>
<path fill="none" stroke="midnightblue" d="M155.5,-45.8045C155.5,-36.9102 155.5,-26.7798 155.5,-19.7511"/>
<polygon fill="midnightblue" stroke="midnightblue" points="152,-46.083 155.5,-56.083 159,-46.083 152,-46.083"/>
</g>
<!-- Node7 -->
<g id="node7" class="node"><title>Node7</title>
<g id="a_node7"><a xlink:href="classBCHistogramFitter.html" target="_top" xlink:title="A class for fitting histograms with functions. ">
<polygon fill="white" stroke="black" points="213.5,-0.5 213.5,-19.5 311.5,-19.5 311.5,-0.5 213.5,-0.5"/>
<text text-anchor="middle" x="262.5" y="-7.5" font-family="Helvetica,sans-Serif" font-size="10.00">BCHistogramFitter</text>
</a>
</g>
</g>
<!-- Node1&#45;&gt;Node7 -->
<g id="edge6" class="edge"><title>Node1&#45;&gt;Node7</title>
<path fill="none" stroke="midnightblue" d="M181.802,-51.7261C201.615,-41.7271 228.207,-28.3065 245.351,-19.6545"/>
<polygon fill="midnightblue" stroke="midnightblue" points="180.042,-48.6938 172.691,-56.324 183.196,-54.9431 180.042,-48.6938"/>
</g>
<!-- Node2 -->
<g id="node2" class="node"><title>Node2</title>
<g id="a_node2"><a xlink:href="classBCModel.html" target="_top" xlink:title="The base class for all user&#45;defined models. ">
<polygon fill="white" stroke="black" points="127,-112.5 127,-131.5 184,-131.5 184,-112.5 127,-112.5"/>
<text text-anchor="middle" x="155.5" y="-119.5" font-family="Helvetica,sans-Serif" font-size="10.00">BCModel</text>
</a>
</g>
</g>
<!-- Node2&#45;&gt;Node1 -->
<g id="edge1" class="edge"><title>Node2&#45;&gt;Node1</title>
<path fill="none" stroke="midnightblue" d="M155.5,-101.805C155.5,-92.9102 155.5,-82.7798 155.5,-75.7511"/>
<polygon fill="midnightblue" stroke="midnightblue" points="152,-102.083 155.5,-112.083 159,-102.083 152,-102.083"/>
</g>
<!-- Node3 -->
<g id="node3" class="node"><title>Node3</title>
<g id="a_node3"><a xlink:href="classBCIntegrate.html" target="_top" xlink:title="A class for handling numerical operations for models. ">
<polygon fill="white" stroke="black" points="121,-168.5 121,-187.5 190,-187.5 190,-168.5 121,-168.5"/>
<text text-anchor="middle" x="155.5" y="-175.5" font-family="Helvetica,sans-Serif" font-size="10.00">BCIntegrate</text>
</a>
</g>
</g>
<!-- Node3&#45;&gt;Node2 -->
<g id="edge2" class="edge"><title>Node3&#45;&gt;Node2</title>
<path fill="none" stroke="midnightblue" d="M155.5,-157.805C155.5,-148.91 155.5,-138.78 155.5,-131.751"/>
<polygon fill="midnightblue" stroke="midnightblue" points="152,-158.083 155.5,-168.083 159,-158.083 152,-158.083"/>
</g>
<!-- Node4 -->
<g id="node4" class="node"><title>Node4</title>
<g id="a_node4"><a xlink:href="classBCEngineMCMC.html" target="_top" xlink:title="An engine class for Markov Chain Monte Carlo. ">
<polygon fill="white" stroke="black" points="109.5,-224.5 109.5,-243.5 201.5,-243.5 201.5,-224.5 109.5,-224.5"/>
<text text-anchor="middle" x="155.5" y="-231.5" font-family="Helvetica,sans-Serif" font-size="10.00">BCEngineMCMC</text>
</a>
</g>
</g>
<!-- Node4&#45;&gt;Node3 -->
<g id="edge3" class="edge"><title>Node4&#45;&gt;Node3</title>
<path fill="none" stroke="midnightblue" d="M155.5,-213.805C155.5,-204.91 155.5,-194.78 155.5,-187.751"/>
<polygon fill="midnightblue" stroke="midnightblue" points="152,-214.083 155.5,-224.083 159,-214.083 152,-214.083"/>
</g>
</g>
</svg>
