<?xml version="1.0" encoding="UTF-8" standalone="no"?>
<!DOCTYPE svg PUBLIC "-//W3C//DTD SVG 1.1//EN"
 "http://www.w3.org/Graphics/SVG/1.1/DTD/svg11.dtd">
<!-- Generated by graphviz version 2.38.0 (20140413.2041)
 -->
<!-- Title: BCEfficiencyFitter Pages: 1 -->
<svg width="105pt" height="252pt"
 viewBox="0.00 0.00 105.00 252.00" xmlns="http://www.w3.org/2000/svg" xmlns:xlink="http://www.w3.org/1999/xlink">
<g id="graph0" class="graph" transform="scale(1 1) rotate(0) translate(4 248)">
<title>BCEfficiencyFitter</title>
<polygon fill="white" stroke="none" points="-4,4 -4,-248 101,-248 101,4 -4,4"/>
<!-- Node1 -->
<g id="node1" class="node"><title>Node1</title>
<polygon fill="#bfbfbf" stroke="black" points="-7.10543e-15,-0.5 -7.10543e-15,-19.5 97,-19.5 97,-0.5 -7.10543e-15,-0.5"/>
<text text-anchor="middle" x="48.5" y="-7.5" font-family="Helvetica,sans-Serif" font-size="10.00">BCEfficiencyFitter</text>
</g>
<!-- Node2 -->
<g id="node2" class="node"><title>Node2</title>
<g id="a_node2"><a xlink:href="classBCFitter.html" target="_top" xlink:title="A base class for all fitting classes. ">
<polygon fill="white" stroke="black" points="22,-56.5 22,-75.5 75,-75.5 75,-56.5 22,-56.5"/>
<text text-anchor="middle" x="48.5" y="-63.5" font-family="Helvetica,sans-Serif" font-size="10.00">BCFitter</text>
</a>
</g>
</g>
<!-- Node2&#45;&gt;Node1 -->
<g id="edge1" class="edge"><title>Node2&#45;&gt;Node1</title>
<path fill="none" stroke="midnightblue" d="M48.5,-45.8045C48.5,-36.9102 48.5,-26.7798 48.5,-19.7511"/>
<polygon fill="midnightblue" stroke="midnightblue" points="45.0001,-46.083 48.5,-56.083 52.0001,-46.083 45.0001,-46.083"/>
</g>
<!-- Node3 -->
<g id="node3" class="node"><title>Node3</title>
<g id="a_node3"><a xlink:href="classBCModel.html" target="_top" xlink:title="The base class for all user&#45;defined models. ">
<polygon fill="white" stroke="black" points="20,-112.5 20,-131.5 77,-131.5 77,-112.5 20,-112.5"/>
<text text-anchor="middle" x="48.5" y="-119.5" font-family="Helvetica,sans-Serif" font-size="10.00">BCModel</text>
</a>
</g>
</g>
<!-- Node3&#45;&gt;Node2 -->
<g id="edge2" class="edge"><title>Node3&#45;&gt;Node2</title>
<path fill="none" stroke="midnightblue" d="M48.5,-101.805C48.5,-92.9102 48.5,-82.7798 48.5,-75.7511"/>
<polygon fill="midnightblue" stroke="midnightblue" points="45.0001,-102.083 48.5,-112.083 52.0001,-102.083 45.0001,-102.083"/>
</g>
<!-- Node4 -->
<g id="node4" class="node"><title>Node4</title>
<g id="a_node4"><a xlink:href="classBCIntegrate.html" target="_top" xlink:title="A class for handling numerical operations for models. ">
<polygon fill="white" stroke="black" points="14,-168.5 14,-187.5 83,-187.5 83,-168.5 14,-168.5"/>
<text text-anchor="middle" x="48.5" y="-175.5" font-family="Helvetica,sans-Serif" font-size="10.00">BCIntegrate</text>
</a>
</g>
</g>
<!-- Node4&#45;&gt;Node3 -->
<g id="edge3" class="edge"><title>Node4&#45;&gt;Node3</title>
<path fill="none" stroke="midnightblue" d="M48.5,-157.805C48.5,-148.91 48.5,-138.78 48.5,-131.751"/>
<polygon fill="midnightblue" stroke="midnightblue" points="45.0001,-158.083 48.5,-168.083 52.0001,-158.083 45.0001,-158.083"/>
</g>
<!-- Node5 -->
<g id="node5" class="node"><title>Node5</title>
<g id="a_node5"><a xlink:href="classBCEngineMCMC.html" target="_top" xlink:title="An engine class for Markov Chain Monte Carlo. ">
<polygon fill="white" stroke="black" points="2.5,-224.5 2.5,-243.5 94.5,-243.5 94.5,-224.5 2.5,-224.5"/>
<text text-anchor="middle" x="48.5" y="-231.5" font-family="Helvetica,sans-Serif" font-size="10.00">BCEngineMCMC</text>
</a>
</g>
</g>
<!-- Node5&#45;&gt;Node4 -->
<g id="edge4" class="edge"><title>Node5&#45;&gt;Node4</title>
<path fill="none" stroke="midnightblue" d="M48.5,-213.805C48.5,-204.91 48.5,-194.78 48.5,-187.751"/>
<polygon fill="midnightblue" stroke="midnightblue" points="45.0001,-214.083 48.5,-224.083 52.0001,-214.083 45.0001,-214.083"/>
</g>
</g>
</svg>
