<?xml version="1.0" encoding="UTF-8" standalone="no"?>
<!DOCTYPE svg PUBLIC "-//W3C//DTD SVG 1.1//EN"
 "http://www.w3.org/Graphics/SVG/1.1/DTD/svg11.dtd">
<!-- Generated by graphviz version 2.38.0 (20140413.2041)
 -->
<!-- Title: BCHistogramBase Pages: 1 -->
<svg width="128pt" height="84pt"
 viewBox="0.00 0.00 128.00 84.00" xmlns="http://www.w3.org/2000/svg" xmlns:xlink="http://www.w3.org/1999/xlink">
<g id="graph0" class="graph" transform="scale(1 1) rotate(0) translate(4 80)">
<title>BCHistogramBase</title>
<polygon fill="white" stroke="none" points="-4,4 -4,-80 124,-80 124,4 -4,4"/>
<!-- Node1 -->
<g id="node1" class="node"><title>Node1</title>
<polygon fill="#bfbfbf" stroke="black" points="10.5,-56.5 10.5,-75.5 108.5,-75.5 108.5,-56.5 10.5,-56.5"/>
<text text-anchor="middle" x="59.5" y="-63.5" font-family="Helvetica,sans-Serif" font-size="10.00">BCHistogramBase</text>
</g>
<!-- Node2 -->
<g id="node2" class="node"><title>Node2</title>
<g id="a_node2"><a xlink:href="classBCH1D.html" target="_top" xlink:title="A class for handling 1D distributions. ">
<polygon fill="white" stroke="black" points="0,-0.5 0,-19.5 51,-19.5 51,-0.5 0,-0.5"/>
<text text-anchor="middle" x="25.5" y="-7.5" font-family="Helvetica,sans-Serif" font-size="10.00">BCH1D</text>
</a>
</g>
</g>
<!-- Node1&#45;&gt;Node2 -->
<g id="edge1" class="edge"><title>Node1&#45;&gt;Node2</title>
<path fill="none" stroke="midnightblue" d="M48.5228,-47.5656C42.673,-38.2747 35.7305,-27.2484 31.0099,-19.7511"/>
<polygon fill="midnightblue" stroke="midnightblue" points="45.5956,-49.4855 53.8856,-56.083 51.5192,-45.7558 45.5956,-49.4855"/>
</g>
<!-- Node3 -->
<g id="node3" class="node"><title>Node3</title>
<g id="a_node3"><a xlink:href="classBCH2D.html" target="_top" xlink:title="A class for handling 2D distributions. ">
<polygon fill="white" stroke="black" points="69,-0.5 69,-19.5 120,-19.5 120,-0.5 69,-0.5"/>
<text text-anchor="middle" x="94.5" y="-7.5" font-family="Helvetica,sans-Serif" font-size="10.00">BCH2D</text>
</a>
</g>
</g>
<!-- Node1&#45;&gt;Node3 -->
<g id="edge2" class="edge"><title>Node1&#45;&gt;Node3</title>
<path fill="none" stroke="midnightblue" d="M70.8001,-47.5656C76.8219,-38.2747 83.9686,-27.2484 88.828,-19.7511"/>
<polygon fill="midnightblue" stroke="midnightblue" points="67.7815,-45.7878 65.2795,-56.083 73.6556,-49.5951 67.7815,-45.7878"/>
</g>
</g>
</svg>
