<?xml version="1.0" encoding="UTF-8" standalone="no"?>
<!DOCTYPE svg PUBLIC "-//W3C//DTD SVG 1.1//EN"
 "http://www.w3.org/Graphics/SVG/1.1/DTD/svg11.dtd">
<!-- Generated by graphviz version 2.38.0 (20140413.2041)
 -->
<!-- Title: Graphical Class Hierarchy Pages: 1 -->
<svg width="215pt" height="294pt"
 viewBox="0.00 0.00 215.00 294.00" xmlns="http://www.w3.org/2000/svg" xmlns:xlink="http://www.w3.org/1999/xlink">
<g id="graph0" class="graph" transform="scale(1 1) rotate(0) translate(4 290)">
<title>Graphical Class Hierarchy</title>
<polygon fill="white" stroke="none" points="-4,4 -4,-290 211,-290 211,4 -4,4"/>
<!-- Node1 -->
<g id="node1" class="node"><title>Node1</title>
<g id="a_node1"><a xlink:href="classBCPrior.html" target="_top" xlink:title="A class to represent the prior of a parameter. ">
<polygon fill="white" stroke="black" points="0,-133.5 0,-152.5 51,-152.5 51,-133.5 0,-133.5"/>
<text text-anchor="middle" x="25.5" y="-140.5" font-family="Helvetica,sans-Serif" font-size="10.00">BCPrior</text>
</a>
</g>
</g>
<!-- Node2 -->
<g id="node2" class="node"><title>Node2</title>
<g id="a_node2"><a xlink:href="classBCCauchyPrior.html" target="_top" xlink:title="A class to represent a Cauchy prior of a parameter. ">
<polygon fill="white" stroke="black" points="104.5,-266.5 104.5,-285.5 189.5,-285.5 189.5,-266.5 104.5,-266.5"/>
<text text-anchor="middle" x="147" y="-273.5" font-family="Helvetica,sans-Serif" font-size="10.00">BCCauchyPrior</text>
</a>
</g>
</g>
<!-- Node1&#45;&gt;Node2 -->
<g id="edge1" class="edge"><title>Node1&#45;&gt;Node2</title>
<path fill="none" stroke="midnightblue" d="M31.7973,-162.416C39.6882,-187.75 56.9245,-231.81 87,-257 92.0324,-261.215 98.0164,-264.5 104.213,-267.059"/>
<polygon fill="midnightblue" stroke="midnightblue" points="35.0684,-161.132 28.8968,-152.521 28.351,-163.101 35.0684,-161.132"/>
</g>
<!-- Node3 -->
<g id="node3" class="node"><title>Node3</title>
<g id="a_node3"><a xlink:href="classBCConstantPrior.html" target="_top" xlink:title="A class to represent a constant prior of a parameter. ">
<polygon fill="white" stroke="black" points="101.5,-228.5 101.5,-247.5 192.5,-247.5 192.5,-228.5 101.5,-228.5"/>
<text text-anchor="middle" x="147" y="-235.5" font-family="Helvetica,sans-Serif" font-size="10.00">BCConstantPrior</text>
</a>
</g>
</g>
<!-- Node1&#45;&gt;Node3 -->
<g id="edge2" class="edge"><title>Node1&#45;&gt;Node3</title>
<path fill="none" stroke="midnightblue" d="M37.0121,-161.774C47.5558,-178.985 65.3166,-204.006 87,-219 92.5761,-222.856 98.9809,-225.965 105.469,-228.461"/>
<polygon fill="midnightblue" stroke="midnightblue" points="39.7491,-159.524 31.663,-152.678 33.715,-163.072 39.7491,-159.524"/>
</g>
<!-- Node4 -->
<g id="node4" class="node"><title>Node4</title>
<g id="a_node4"><a xlink:href="classBCGaussianPrior.html" target="_top" xlink:title="A class to represent a gaussian prior of a parameter. ">
<polygon fill="white" stroke="black" points="101,-190.5 101,-209.5 193,-209.5 193,-190.5 101,-190.5"/>
<text text-anchor="middle" x="147" y="-197.5" font-family="Helvetica,sans-Serif" font-size="10.00">BCGaussianPrior</text>
</a>
</g>
</g>
<!-- Node1&#45;&gt;Node4 -->
<g id="edge3" class="edge"><title>Node1&#45;&gt;Node4</title>
<path fill="none" stroke="midnightblue" d="M48.1776,-158.466C59.3875,-165.978 73.5165,-174.715 87,-181 94.7053,-184.592 103.274,-187.776 111.438,-190.462"/>
<polygon fill="midnightblue" stroke="midnightblue" points="50.1074,-155.546 39.8813,-152.775 46.1475,-161.318 50.1074,-155.546"/>
</g>
<!-- Node5 -->
<g id="node5" class="node"><title>Node5</title>
<g id="a_node5"><a xlink:href="classBCPositiveDefinitePrior.html" target="_top" xlink:title="A class to wrap around a BCPrior to make it positive definite. ">
<polygon fill="white" stroke="black" points="87,-152.5 87,-171.5 207,-171.5 207,-152.5 87,-152.5"/>
<text text-anchor="middle" x="147" y="-159.5" font-family="Helvetica,sans-Serif" font-size="10.00">BCPositiveDefinitePrior</text>
</a>
</g>
</g>
<!-- Node1&#45;&gt;Node5 -->
<g id="edge4" class="edge"><title>Node1&#45;&gt;Node5</title>
<path fill="none" stroke="midnightblue" d="M61.3034,-148.534C69.3096,-149.807 78.0442,-151.195 86.7642,-152.582"/>
<polygon fill="midnightblue" stroke="midnightblue" points="61.686,-145.051 51.2605,-146.937 60.5868,-151.964 61.686,-145.051"/>
</g>
<!-- Node6 -->
<g id="node6" class="node"><title>Node6</title>
<g id="a_node6"><a xlink:href="classBCSplitGaussianPrior.html" target="_top" xlink:title="A class to represent a split&#45;Gaussian prior of a parameter. ">
<polygon fill="white" stroke="black" points="91,-114.5 91,-133.5 203,-133.5 203,-114.5 91,-114.5"/>
<text text-anchor="middle" x="147" y="-121.5" font-family="Helvetica,sans-Serif" font-size="10.00">BCSplitGaussianPrior</text>
</a>
</g>
</g>
<!-- Node1&#45;&gt;Node6 -->
<g id="edge5" class="edge"><title>Node1&#45;&gt;Node6</title>
<path fill="none" stroke="midnightblue" d="M61.2182,-137.48C70.4589,-136.011 80.6747,-134.386 90.721,-132.789"/>
<polygon fill="midnightblue" stroke="midnightblue" points="60.5868,-134.036 51.2605,-139.063 61.686,-140.949 60.5868,-134.036"/>
</g>
<!-- Node7 -->
<g id="node7" class="node"><title>Node7</title>
<g id="a_node7"><a xlink:href="classBCTF1LogPrior.html" target="_top" xlink:title="A class to represent the log of a prior of a parameter by a formula through a TF1. ">
<polygon fill="white" stroke="black" points="105,-76.5 105,-95.5 189,-95.5 189,-76.5 105,-76.5"/>
<text text-anchor="middle" x="147" y="-83.5" font-family="Helvetica,sans-Serif" font-size="10.00">BCTF1LogPrior</text>
</a>
</g>
</g>
<!-- Node1&#45;&gt;Node7 -->
<g id="edge6" class="edge"><title>Node1&#45;&gt;Node7</title>
<path fill="none" stroke="midnightblue" d="M48.1776,-127.534C59.3875,-120.022 73.5165,-111.285 87,-105 94.7053,-101.408 103.274,-98.224 111.438,-95.5377"/>
<polygon fill="midnightblue" stroke="midnightblue" points="46.1475,-124.682 39.8813,-133.225 50.1074,-130.454 46.1475,-124.682"/>
</g>
<!-- Node8 -->
<g id="node8" class="node"><title>Node8</title>
<g id="a_node8"><a xlink:href="classBCTF1Prior.html" target="_top" xlink:title="A class to represent the prior of a parameter by a formula through a TF1. ">
<polygon fill="white" stroke="black" points="113,-38.5 113,-57.5 181,-57.5 181,-38.5 113,-38.5"/>
<text text-anchor="middle" x="147" y="-45.5" font-family="Helvetica,sans-Serif" font-size="10.00">BCTF1Prior</text>
</a>
</g>
</g>
<!-- Node1&#45;&gt;Node8 -->
<g id="edge7" class="edge"><title>Node1&#45;&gt;Node8</title>
<path fill="none" stroke="midnightblue" d="M37.0121,-124.226C47.5558,-107.015 65.3166,-81.9943 87,-67 94.7003,-61.6751 103.981,-57.7751 112.878,-54.9465"/>
<polygon fill="midnightblue" stroke="midnightblue" points="33.715,-122.928 31.663,-133.322 39.7491,-126.476 33.715,-122.928"/>
</g>
<!-- Node9 -->
<g id="node9" class="node"><title>Node9</title>
<g id="a_node9"><a xlink:href="classBCTH1Prior.html" target="_top" xlink:title="A class to represent the prior of a parameter by a TH1. ">
<polygon fill="white" stroke="black" points="112,-0.5 112,-19.5 182,-19.5 182,-0.5 112,-0.5"/>
<text text-anchor="middle" x="147" y="-7.5" font-family="Helvetica,sans-Serif" font-size="10.00">BCTH1Prior</text>
</a>
</g>
</g>
<!-- Node1&#45;&gt;Node9 -->
<g id="edge8" class="edge"><title>Node1&#45;&gt;Node9</title>
<path fill="none" stroke="midnightblue" d="M31.7973,-123.584C39.6882,-98.2496 56.9245,-54.1896 87,-29 94.0948,-23.0578 103.081,-18.9638 111.888,-16.1468"/>
<polygon fill="midnightblue" stroke="midnightblue" points="28.351,-122.899 28.8968,-133.479 35.0684,-124.868 28.351,-122.899"/>
</g>
</g>
</svg>
