<?xml version="1.0" encoding="UTF-8" standalone="no"?>
<!DOCTYPE svg PUBLIC "-//W3C//DTD SVG 1.1//EN"
 "http://www.w3.org/Graphics/SVG/1.1/DTD/svg11.dtd">
<!-- Generated by graphviz version 2.38.0 (20140413.2041)
 -->
<!-- Title: Graphical Class Hierarchy Pages: 1 -->
<svg width="193pt" height="66pt"
 viewBox="0.00 0.00 193.00 66.00" xmlns="http://www.w3.org/2000/svg" xmlns:xlink="http://www.w3.org/1999/xlink">
<g id="graph0" class="graph" transform="scale(1 1) rotate(0) translate(4 62)">
<title>Graphical Class Hierarchy</title>
<polygon fill="white" stroke="none" points="-4,4 -4,-62 189,-62 189,4 -4,4"/>
<!-- Node1 -->
<g id="node1" class="node"><title>Node1</title>
<g id="a_node1"><a xlink:href="classBCHistogramBase.html" target="_top" xlink:title="A base class for drawing histograms in BAT style. ">
<polygon fill="white" stroke="black" points="0,-19.5 0,-38.5 98,-38.5 98,-19.5 0,-19.5"/>
<text text-anchor="middle" x="49" y="-26.5" font-family="Helvetica,sans-Serif" font-size="10.00">BCHistogramBase</text>
</a>
</g>
</g>
<!-- Node2 -->
<g id="node2" class="node"><title>Node2</title>
<g id="a_node2"><a xlink:href="classBCH1D.html" target="_top" xlink:title="A class for handling 1D distributions. ">
<polygon fill="white" stroke="black" points="134,-38.5 134,-57.5 185,-57.5 185,-38.5 134,-38.5"/>
<text text-anchor="middle" x="159.5" y="-45.5" font-family="Helvetica,sans-Serif" font-size="10.00">BCH1D</text>
</a>
</g>
</g>
<!-- Node1&#45;&gt;Node2 -->
<g id="edge1" class="edge"><title>Node1&#45;&gt;Node2</title>
<path fill="none" stroke="midnightblue" d="M108.094,-39.1731C117.185,-40.7651 126.131,-42.3316 133.904,-43.6929"/>
<polygon fill="midnightblue" stroke="midnightblue" points="108.675,-35.7218 98.2215,-37.4443 107.468,-42.6169 108.675,-35.7218"/>
</g>
<!-- Node3 -->
<g id="node3" class="node"><title>Node3</title>
<g id="a_node3"><a xlink:href="classBCH2D.html" target="_top" xlink:title="A class for handling 2D distributions. ">
<polygon fill="white" stroke="black" points="134,-0.5 134,-19.5 185,-19.5 185,-0.5 134,-0.5"/>
<text text-anchor="middle" x="159.5" y="-7.5" font-family="Helvetica,sans-Serif" font-size="10.00">BCH2D</text>
</a>
</g>
</g>
<!-- Node1&#45;&gt;Node3 -->
<g id="edge2" class="edge"><title>Node1&#45;&gt;Node3</title>
<path fill="none" stroke="midnightblue" d="M108.094,-18.8269C117.185,-17.2349 126.131,-15.6684 133.904,-14.3071"/>
<polygon fill="midnightblue" stroke="midnightblue" points="107.468,-15.3831 98.2215,-20.5557 108.675,-22.2782 107.468,-15.3831"/>
</g>
</g>
</svg>
