<?xml version="1.0" encoding="UTF-8" standalone="no"?>
<!DOCTYPE svg PUBLIC "-//W3C//DTD SVG 1.1//EN"
 "http://www.w3.org/Graphics/SVG/1.1/DTD/svg11.dtd">
<!-- Generated by graphviz version 2.38.0 (20140413.2041)
 -->
<!-- Title: Graphical Class Hierarchy Pages: 1 -->
<svg width="190pt" height="66pt"
 viewBox="0.00 0.00 190.00 66.00" xmlns="http://www.w3.org/2000/svg" xmlns:xlink="http://www.w3.org/1999/xlink">
<g id="graph0" class="graph" transform="scale(1 1) rotate(0) translate(4 62)">
<title>Graphical Class Hierarchy</title>
<polygon fill="white" stroke="none" points="-4,4 -4,-62 186,-62 186,4 -4,4"/>
<!-- Node1 -->
<g id="node1" class="node"><title>Node1</title>
<g id="a_node1"><a xlink:href="classBCVariable.html" target="_top" xlink:title="A class representing a variable of a model. ">
<polygon fill="white" stroke="black" points="0,-19.5 0,-38.5 66,-38.5 66,-19.5 0,-19.5"/>
<text text-anchor="middle" x="33" y="-26.5" font-family="Helvetica,sans-Serif" font-size="10.00">BCVariable</text>
</a>
</g>
</g>
<!-- Node2 -->
<g id="node2" class="node"><title>Node2</title>
<g id="a_node2"><a xlink:href="classBCObservable.html" target="_top" xlink:title="A class representing a variable of a model. ">
<polygon fill="white" stroke="black" points="102,-38.5 102,-57.5 182,-57.5 182,-38.5 102,-38.5"/>
<text text-anchor="middle" x="142" y="-45.5" font-family="Helvetica,sans-Serif" font-size="10.00">BCObservable</text>
</a>
</g>
</g>
<!-- Node1&#45;&gt;Node2 -->
<g id="edge1" class="edge"><title>Node1&#45;&gt;Node2</title>
<path fill="none" stroke="midnightblue" d="M76.1348,-36.4819C84.5684,-37.9794 93.3971,-39.5471 101.729,-41.0267"/>
<polygon fill="midnightblue" stroke="midnightblue" points="76.5615,-33.003 66.1035,-34.7006 75.3376,-39.8952 76.5615,-33.003"/>
</g>
<!-- Node3 -->
<g id="node3" class="node"><title>Node3</title>
<g id="a_node3"><a xlink:href="classBCParameter.html" target="_top" xlink:title="A class representing a parameter of a model. ">
<polygon fill="white" stroke="black" points="104,-0.5 104,-19.5 180,-19.5 180,-0.5 104,-0.5"/>
<text text-anchor="middle" x="142" y="-7.5" font-family="Helvetica,sans-Serif" font-size="10.00">BCParameter</text>
</a>
</g>
</g>
<!-- Node1&#45;&gt;Node3 -->
<g id="edge2" class="edge"><title>Node1&#45;&gt;Node3</title>
<path fill="none" stroke="midnightblue" d="M76.1134,-21.5219C85.2053,-19.9075 94.7571,-18.2114 103.652,-16.6319"/>
<polygon fill="midnightblue" stroke="midnightblue" points="75.3376,-18.1048 66.1035,-23.2994 76.5615,-24.997 75.3376,-18.1048"/>
</g>
</g>
</svg>
