<?xml version="1.0" encoding="UTF-8" standalone="no"?>
<!DOCTYPE svg PUBLIC "-//W3C//DTD SVG 1.1//EN"
 "http://www.w3.org/Graphics/SVG/1.1/DTD/svg11.dtd">
<!-- Generated by graphviz version 2.38.0 (20140413.2041)
 -->
<!-- Title: Graphical Class Hierarchy Pages: 1 -->
<svg width="555pt" height="180pt"
 viewBox="0.00 0.00 555.00 180.00" xmlns="http://www.w3.org/2000/svg" xmlns:xlink="http://www.w3.org/1999/xlink">
<g id="graph0" class="graph" transform="scale(1 1) rotate(0) translate(4 176)">
<title>Graphical Class Hierarchy</title>
<polygon fill="white" stroke="none" points="-4,4 -4,-176 551,-176 551,4 -4,4"/>
<!-- Node1 -->
<g id="node1" class="node"><title>Node1</title>
<g id="a_node1"><a xlink:href="classBCEngineMCMC.html" target="_top" xlink:title="An engine class for Markov Chain Monte Carlo. ">
<polygon fill="white" stroke="black" points="0,-76.5 0,-95.5 92,-95.5 92,-76.5 0,-76.5"/>
<text text-anchor="middle" x="46" y="-83.5" font-family="Helvetica,sans-Serif" font-size="10.00">BCEngineMCMC</text>
</a>
</g>
</g>
<!-- Node2 -->
<g id="node2" class="node"><title>Node2</title>
<g id="a_node2"><a xlink:href="classBCIntegrate.html" target="_top" xlink:title="A class for handling numerical operations for models. ">
<polygon fill="white" stroke="black" points="128,-76.5 128,-95.5 197,-95.5 197,-76.5 128,-76.5"/>
<text text-anchor="middle" x="162.5" y="-83.5" font-family="Helvetica,sans-Serif" font-size="10.00">BCIntegrate</text>
</a>
</g>
</g>
<!-- Node1&#45;&gt;Node2 -->
<g id="edge1" class="edge"><title>Node1&#45;&gt;Node2</title>
<path fill="none" stroke="midnightblue" d="M102.397,-86C111.102,-86 119.864,-86 127.876,-86"/>
<polygon fill="midnightblue" stroke="midnightblue" points="102.253,-82.5001 92.2534,-86 102.253,-89.5001 102.253,-82.5001"/>
</g>
<!-- Node3 -->
<g id="node3" class="node"><title>Node3</title>
<g id="a_node3"><a xlink:href="classBCModel.html" target="_top" xlink:title="The base class for all user&#45;defined models. ">
<polygon fill="white" stroke="black" points="233,-76.5 233,-95.5 290,-95.5 290,-76.5 233,-76.5"/>
<text text-anchor="middle" x="261.5" y="-83.5" font-family="Helvetica,sans-Serif" font-size="10.00">BCModel</text>
</a>
</g>
</g>
<!-- Node2&#45;&gt;Node3 -->
<g id="edge2" class="edge"><title>Node2&#45;&gt;Node3</title>
<path fill="none" stroke="midnightblue" d="M207.172,-86C215.844,-86 224.725,-86 232.689,-86"/>
<polygon fill="midnightblue" stroke="midnightblue" points="207.154,-82.5001 197.154,-86 207.154,-89.5001 207.154,-82.5001"/>
</g>
<!-- Node4 -->
<g id="node4" class="node"><title>Node4</title>
<g id="a_node4"><a xlink:href="classBCEmptyModel.html" target="_top" xlink:title="An empty model, used for reading in a chain. ">
<polygon fill="white" stroke="black" points="326.5,-152.5 326.5,-171.5 412.5,-171.5 412.5,-152.5 326.5,-152.5"/>
<text text-anchor="middle" x="369.5" y="-159.5" font-family="Helvetica,sans-Serif" font-size="10.00">BCEmptyModel</text>
</a>
</g>
</g>
<!-- Node3&#45;&gt;Node4 -->
<g id="edge3" class="edge"><title>Node3&#45;&gt;Node4</title>
<path fill="none" stroke="midnightblue" d="M278.8,-103.262C290.974,-115.466 308.47,-131.616 326,-143 331.423,-146.522 337.607,-149.698 343.546,-152.4"/>
<polygon fill="midnightblue" stroke="midnightblue" points="281.109,-100.616 271.621,-95.901 276.098,-105.504 281.109,-100.616"/>
</g>
<!-- Node5 -->
<g id="node5" class="node"><title>Node5</title>
<g id="a_node5"><a xlink:href="classBCFitter.html" target="_top" xlink:title="A base class for all fitting classes. ">
<polygon fill="white" stroke="black" points="343,-114.5 343,-133.5 396,-133.5 396,-114.5 343,-114.5"/>
<text text-anchor="middle" x="369.5" y="-121.5" font-family="Helvetica,sans-Serif" font-size="10.00">BCFitter</text>
</a>
</g>
</g>
<!-- Node3&#45;&gt;Node5 -->
<g id="edge4" class="edge"><title>Node3&#45;&gt;Node5</title>
<path fill="none" stroke="midnightblue" d="M298.908,-99.0521C313.373,-104.238 329.671,-110.08 342.857,-114.807"/>
<polygon fill="midnightblue" stroke="midnightblue" points="299.843,-95.669 289.248,-95.589 297.481,-102.258 299.843,-95.669"/>
</g>
<!-- Node9 -->
<g id="node9" class="node"><title>Node9</title>
<g id="a_node9"><a xlink:href="classBCMTF.html" target="_top" xlink:title="A class for fitting several templates to a data set. ">
<polygon fill="white" stroke="black" points="344,-76.5 344,-95.5 395,-95.5 395,-76.5 344,-76.5"/>
<text text-anchor="middle" x="369.5" y="-83.5" font-family="Helvetica,sans-Serif" font-size="10.00">BCMTF</text>
</a>
</g>
</g>
<!-- Node3&#45;&gt;Node9 -->
<g id="edge8" class="edge"><title>Node3&#45;&gt;Node9</title>
<path fill="none" stroke="midnightblue" d="M300.284,-86C314.807,-86 330.996,-86 343.957,-86"/>
<polygon fill="midnightblue" stroke="midnightblue" points="300.074,-82.5001 290.074,-86 300.074,-89.5001 300.074,-82.5001"/>
</g>
<!-- Node10 -->
<g id="node10" class="node"><title>Node10</title>
<g id="a_node10"><a xlink:href="classBCPriorModel.html" target="_top" xlink:title="Class for sampling from prior of a BCModel. ">
<polygon fill="white" stroke="black" points="331,-38.5 331,-57.5 408,-57.5 408,-38.5 331,-38.5"/>
<text text-anchor="middle" x="369.5" y="-45.5" font-family="Helvetica,sans-Serif" font-size="10.00">BCPriorModel</text>
</a>
</g>
</g>
<!-- Node3&#45;&gt;Node10 -->
<g id="edge9" class="edge"><title>Node3&#45;&gt;Node10</title>
<path fill="none" stroke="midnightblue" d="M298.684,-73.0282C312.807,-67.9656 328.706,-62.2659 341.76,-57.5859"/>
<polygon fill="midnightblue" stroke="midnightblue" points="297.481,-69.7416 289.248,-76.411 299.843,-76.331 297.481,-69.7416"/>
</g>
<!-- Node11 -->
<g id="node11" class="node"><title>Node11</title>
<g id="a_node11"><a xlink:href="classBCRooInterface.html" target="_top" xlink:title="Interface allowing to run BAT on a problem/data defined in a standard RooFit workspace format...">
<polygon fill="white" stroke="black" points="326,-0.5 326,-19.5 413,-19.5 413,-0.5 326,-0.5"/>
<text text-anchor="middle" x="369.5" y="-7.5" font-family="Helvetica,sans-Serif" font-size="10.00">BCRooInterface</text>
</a>
</g>
</g>
<!-- Node3&#45;&gt;Node11 -->
<g id="edge10" class="edge"><title>Node3&#45;&gt;Node11</title>
<path fill="none" stroke="midnightblue" d="M278.8,-68.7384C290.974,-56.534 308.47,-40.384 326,-29 331.423,-25.4785 337.607,-22.3024 343.546,-19.5999"/>
<polygon fill="midnightblue" stroke="midnightblue" points="276.098,-66.4962 271.621,-76.099 281.109,-71.3837 276.098,-66.4962"/>
</g>
<!-- Node6 -->
<g id="node6" class="node"><title>Node6</title>
<g id="a_node6"><a xlink:href="classBCEfficiencyFitter.html" target="_top" xlink:title="A class for fitting histograms with functions. ">
<polygon fill="white" stroke="black" points="449.5,-152.5 449.5,-171.5 546.5,-171.5 546.5,-152.5 449.5,-152.5"/>
<text text-anchor="middle" x="498" y="-159.5" font-family="Helvetica,sans-Serif" font-size="10.00">BCEfficiencyFitter</text>
</a>
</g>
</g>
<!-- Node5&#45;&gt;Node6 -->
<g id="edge5" class="edge"><title>Node5&#45;&gt;Node6</title>
<path fill="none" stroke="midnightblue" d="M405.701,-134.574C424.336,-140.172 447.043,-146.993 465.15,-152.432"/>
<polygon fill="midnightblue" stroke="midnightblue" points="406.683,-131.215 396.099,-131.69 404.669,-137.919 406.683,-131.215"/>
</g>
<!-- Node7 -->
<g id="node7" class="node"><title>Node7</title>
<g id="a_node7"><a xlink:href="classBCGraphFitter.html" target="_top" xlink:title="A class for fitting graphs with functions. ">
<polygon fill="white" stroke="black" points="458,-114.5 458,-133.5 538,-133.5 538,-114.5 458,-114.5"/>
<text text-anchor="middle" x="498" y="-121.5" font-family="Helvetica,sans-Serif" font-size="10.00">BCGraphFitter</text>
</a>
</g>
</g>
<!-- Node5&#45;&gt;Node7 -->
<g id="edge6" class="edge"><title>Node5&#45;&gt;Node7</title>
<path fill="none" stroke="midnightblue" d="M406.218,-124C422.355,-124 441.463,-124 457.976,-124"/>
<polygon fill="midnightblue" stroke="midnightblue" points="406.099,-120.5 396.099,-124 406.099,-127.5 406.099,-120.5"/>
</g>
<!-- Node8 -->
<g id="node8" class="node"><title>Node8</title>
<g id="a_node8"><a xlink:href="classBCHistogramFitter.html" target="_top" xlink:title="A class for fitting histograms with functions. ">
<polygon fill="white" stroke="black" points="449,-76.5 449,-95.5 547,-95.5 547,-76.5 449,-76.5"/>
<text text-anchor="middle" x="498" y="-83.5" font-family="Helvetica,sans-Serif" font-size="10.00">BCHistogramFitter</text>
</a>
</g>
</g>
<!-- Node5&#45;&gt;Node8 -->
<g id="edge7" class="edge"><title>Node5&#45;&gt;Node8</title>
<path fill="none" stroke="midnightblue" d="M405.701,-113.426C424.336,-107.828 447.043,-101.007 465.15,-95.5675"/>
<polygon fill="midnightblue" stroke="midnightblue" points="404.669,-110.081 396.099,-116.31 406.683,-116.785 404.669,-110.081"/>
</g>
</g>
</svg>
