<?xml version="1.0" encoding="UTF-8" standalone="no"?>
<!DOCTYPE svg PUBLIC "-//W3C//DTD SVG 1.1//EN"
 "http://www.w3.org/Graphics/SVG/1.1/DTD/svg11.dtd">
<!-- Generated by graphviz version 2.38.0 (20140413.2041)
 -->
<!-- Title: BCCubaOptions::General Pages: 1 -->
<svg width="302pt" height="142pt"
 viewBox="0.00 0.00 302.00 142.00" xmlns="http://www.w3.org/2000/svg" xmlns:xlink="http://www.w3.org/1999/xlink">
<g id="graph0" class="graph" transform="scale(1 1) rotate(0) translate(4 138)">
<title>BCCubaOptions::General</title>
<polygon fill="white" stroke="none" points="-4,4 -4,-138 298,-138 298,4 -4,4"/>
<!-- Node1 -->
<g id="node1" class="node"><title>Node1</title>
<polygon fill="#bfbfbf" stroke="black" points="0,-57.5 0,-76.5 128,-76.5 128,-57.5 0,-57.5"/>
<text text-anchor="middle" x="64" y="-64.5" font-family="Helvetica,sans-Serif" font-size="10.00">BCCubaOptions::General</text>
</g>
<!-- Node2 -->
<g id="node2" class="node"><title>Node2</title>
<g id="a_node2"><a xlink:href="structBCCubaOptions_1_1Cuhre.html" target="_top" xlink:title="Hold Cuhre specific options. ">
<polygon fill="white" stroke="black" points="169,-114.5 169,-133.5 289,-133.5 289,-114.5 169,-114.5"/>
<text text-anchor="middle" x="229" y="-121.5" font-family="Helvetica,sans-Serif" font-size="10.00">BCCubaOptions::Cuhre</text>
</a>
</g>
</g>
<!-- Node1&#45;&gt;Node2 -->
<g id="edge1" class="edge"><title>Node1&#45;&gt;Node2</title>
<path fill="none" stroke="midnightblue" d="M97.8853,-80.3614C117.041,-87.9582 141.734,-97.4345 164,-105 173.657,-108.281 184.238,-111.552 193.965,-114.431"/>
<polygon fill="midnightblue" stroke="midnightblue" points="99.0003,-77.038 88.4154,-76.5802 96.4045,-83.5389 99.0003,-77.038"/>
</g>
<!-- Node3 -->
<g id="node3" class="node"><title>Node3</title>
<g id="a_node3"><a xlink:href="structBCCubaOptions_1_1Divonne.html" target="_top" xlink:title="Hold Divonne specific options. ">
<polygon fill="white" stroke="black" points="164,-76.5 164,-95.5 294,-95.5 294,-76.5 164,-76.5"/>
<text text-anchor="middle" x="229" y="-83.5" font-family="Helvetica,sans-Serif" font-size="10.00">BCCubaOptions::Divonne</text>
</a>
</g>
</g>
<!-- Node1&#45;&gt;Node3 -->
<g id="edge2" class="edge"><title>Node1&#45;&gt;Node3</title>
<path fill="none" stroke="midnightblue" d="M138.027,-75.5123C146.621,-76.5141 155.342,-77.5306 163.802,-78.5168"/>
<polygon fill="midnightblue" stroke="midnightblue" points="138.358,-72.0273 128.02,-74.3459 137.548,-78.9803 138.358,-72.0273"/>
</g>
<!-- Node4 -->
<g id="node4" class="node"><title>Node4</title>
<g id="a_node4"><a xlink:href="structBCCubaOptions_1_1Suave.html" target="_top" xlink:title="Hold Suave specific options. ">
<polygon fill="white" stroke="black" points="168,-38.5 168,-57.5 290,-57.5 290,-38.5 168,-38.5"/>
<text text-anchor="middle" x="229" y="-45.5" font-family="Helvetica,sans-Serif" font-size="10.00">BCCubaOptions::Suave</text>
</a>
</g>
</g>
<!-- Node1&#45;&gt;Node4 -->
<g id="edge3" class="edge"><title>Node1&#45;&gt;Node4</title>
<path fill="none" stroke="midnightblue" d="M138.245,-58.4622C148.138,-57.3091 158.195,-56.1368 167.824,-55.0144"/>
<polygon fill="midnightblue" stroke="midnightblue" points="137.548,-55.0198 128.02,-59.6541 138.358,-61.9727 137.548,-55.0198"/>
</g>
<!-- Node5 -->
<g id="node5" class="node"><title>Node5</title>
<g id="a_node5"><a xlink:href="structBCCubaOptions_1_1Vegas.html" target="_top" xlink:title="Hold Vegas specific options. ">
<polygon fill="white" stroke="black" points="168,-0.5 168,-19.5 290,-19.5 290,-0.5 168,-0.5"/>
<text text-anchor="middle" x="229" y="-7.5" font-family="Helvetica,sans-Serif" font-size="10.00">BCCubaOptions::Vegas</text>
</a>
</g>
</g>
<!-- Node1&#45;&gt;Node5 -->
<g id="edge4" class="edge"><title>Node1&#45;&gt;Node5</title>
<path fill="none" stroke="midnightblue" d="M97.8853,-53.6386C117.041,-46.0418 141.734,-36.5655 164,-29 173.657,-25.7186 184.238,-22.4481 193.965,-19.5687"/>
<polygon fill="midnightblue" stroke="midnightblue" points="96.4045,-50.4611 88.4154,-57.4198 99.0003,-56.962 96.4045,-50.4611"/>
</g>
</g>
</svg>
