<?xml version="1.0" encoding="UTF-8" standalone="no"?>
<!DOCTYPE svg PUBLIC "-//W3C//DTD SVG 1.1//EN"
 "http://www.w3.org/Graphics/SVG/1.1/DTD/svg11.dtd">
<!-- Generated by graphviz version 2.38.0 (20140413.2041)
 -->
<!-- Title: G Pages: 1 -->
<svg width="124pt" height="188pt"
 viewBox="0.00 0.00 124.00 188.00" xmlns="http://www.w3.org/2000/svg" xmlns:xlink="http://www.w3.org/1999/xlink">
<g id="graph0" class="graph" transform="scale(1 1) rotate(0) translate(4 184)">
<title>G</title>
<polygon fill="white" stroke="none" points="-4,4 -4,-184 120,-184 120,4 -4,4"/>
<!-- a -->
<g id="node1" class="node"><title>a</title>
<g id="a_node1"><a xlink:href="../../ref-guide/html/classBCEngineMCMC.html" target="_top" xlink:title="BCEngineMCMC">
<polygon fill="none" stroke="black" points="116,-180 0,-180 0,-144 116,-144 116,-180"/>
<text text-anchor="middle" x="58" y="-158.3" font-family="Times,serif" font-size="14.00">BCEngineMCMC</text>
</a>
</g>
</g>
<!-- b -->
<g id="node2" class="node"><title>b</title>
<g id="a_node2"><a xlink:href="../../ref-guide/html/classBCIntegrate.html" target="_top" xlink:title="BCIntegrate">
<polygon fill="none" stroke="black" points="99.5,-108 16.5,-108 16.5,-72 99.5,-72 99.5,-108"/>
<text text-anchor="middle" x="58" y="-86.3" font-family="Times,serif" font-size="14.00">BCIntegrate</text>
</a>
</g>
</g>
<!-- a&#45;&gt;b -->
<g id="edge1" class="edge"><title>a&#45;&gt;b</title>
<path fill="none" stroke="black" d="M58,-143.697C58,-135.983 58,-126.712 58,-118.112"/>
<polygon fill="black" stroke="black" points="61.5001,-118.104 58,-108.104 54.5001,-118.104 61.5001,-118.104"/>
</g>
<!-- c -->
<g id="node3" class="node"><title>c</title>
<g id="a_node3"><a xlink:href="../../ref-guide/html/classBCModel.html" target="_top" xlink:title="BCModel">
<polygon fill="none" stroke="black" points="93.5,-36 22.5,-36 22.5,-0 93.5,-0 93.5,-36"/>
<text text-anchor="middle" x="58" y="-14.3" font-family="Times,serif" font-size="14.00">BCModel</text>
</a>
</g>
</g>
<!-- b&#45;&gt;c -->
<g id="edge2" class="edge"><title>b&#45;&gt;c</title>
<path fill="none" stroke="black" d="M58,-71.6966C58,-63.9827 58,-54.7125 58,-46.1124"/>
<polygon fill="black" stroke="black" points="61.5001,-46.1043 58,-36.1043 54.5001,-46.1044 61.5001,-46.1043"/>
</g>
</g>
</svg>
